<svg width="786" height="432" viewBox="0 0 786 432" fill="none" xmlns="http://www.w3.org/2000/svg">
<g clip-path="url(#clip0_25_288)">
<mask id="mask0_25_288" style="mask-type:luminance" maskUnits="userSpaceOnUse" x="0" y="0" width="786" height="432">
<path d="M0 0H786V431.24H0V0Z" fill="white"/>
</mask>
<g mask="url(#mask0_25_288)">
<path d="M13.0258 428.09L19.1315 431.24M13.0258 428.09H31.1201M13.0258 428.09L6.71703 424.836M13.0258 428.09H0.211238M19.1315 431.24L16.9099 431.238L14.7113 431.232L12.558 431.213L10.4729 431.175L8.47734 431.113L6.59421 431.021L4.84536 430.893L3.22151 430.731L1.82854 430.503L0.560025 430.242L0.211238 430.15V428.09M19.1315 431.24H36.9349M31.1201 428.09L36.9349 431.24M31.1201 428.09H49.214M31.1201 428.09L29.636 427.286L25.1116 424.838M6.71703 424.836L25.1116 424.838M6.71703 424.836L0.211238 421.482M0.211238 428.09L0.210692 424.836M36.9349 431.24H54.7378M54.7378 431.24H72.5412M54.7378 431.24L49.214 428.09M72.5412 431.24H90.3447M72.5412 431.24L67.3078 428.09M49.214 428.09H67.3078M49.214 428.09L43.5056 424.838M90.3447 431.24H108.148M90.3447 431.24L85.4016 428.09M67.3078 428.09H85.4016M67.3078 428.09L61.9002 424.838M108.148 431.24H125.951M108.148 431.24L103.495 428.09M85.4016 428.09H103.495M85.4016 428.09L80.2948 424.838M125.951 431.24H143.754M125.951 431.24L121.59 428.09M103.495 428.09H121.59M103.495 428.09L102.309 427.286L101.712 426.883L98.6894 424.838M143.754 431.24H161.557M143.754 431.24L139.684 428.09M121.59 428.09H139.684M121.59 428.09L120.477 427.286L117.083 424.838M161.557 431.24H179.361M161.557 431.24L157.778 428.09M139.684 428.09H157.778M139.684 428.09L135.478 424.838M179.361 431.24H197.164M179.361 431.24L175.872 428.09M157.778 428.09H175.872M157.778 428.09L156.814 427.286L156.328 426.883L153.873 424.838M197.164 431.24H214.967M197.164 431.24L193.966 428.09M175.872 428.09H193.966M175.872 428.09L172.267 424.838M214.967 431.24H232.771M214.967 431.24L212.06 428.09M193.966 428.09H212.06M193.966 428.09L193.15 427.286L192.739 426.883L190.661 424.838M232.771 431.24H250.574M232.771 431.24L232.124 430.462L231.145 429.284L230.154 428.09M212.06 428.09H230.154M212.06 428.09L211.689 427.69L211.318 427.286L209.056 424.838M250.574 431.24H268.377M250.574 431.24L250 430.462L248.248 428.09M230.154 428.09H248.248M230.154 428.09L229.486 427.286L229.15 426.883L227.45 424.838M268.377 431.24H286.18M268.377 431.24L266.342 428.09M248.248 428.09H266.342M248.248 428.09L245.844 424.838M286.18 431.24H303.984M286.18 431.24L285.533 430.07L284.877 428.888L284.657 428.49L284.436 428.09M266.342 428.09H284.436M266.342 428.09L266.083 427.69L265.823 427.286L265.562 426.883L264.239 424.838M303.984 431.24H321.787M303.984 431.24L303.444 430.07L303.263 429.678L303.081 429.284L302.53 428.09M284.436 428.09H302.53M284.436 428.09L283.991 427.286L283.767 426.883L283.542 426.477L282.634 424.838M321.787 431.24H339.59M321.787 431.24L320.624 428.09M302.53 428.09H320.624M302.53 428.09L302.159 427.286L301.408 425.661L301.219 425.25L301.028 424.838M339.59 431.24L339.483 430.852L339.375 430.462L338.829 428.49L338.718 428.09M339.59 431.24H357.393M320.624 428.09H338.718M320.624 428.09L320.476 427.69L320.327 427.286L320.178 426.885L319.423 424.838M338.718 428.09H356.812M338.718 428.09L337.817 424.838M357.393 431.24H375.197M357.393 431.24L356.812 428.09M375.197 431.24H393M375.197 431.24L375.089 430.07L374.906 428.09M356.812 428.09H374.906M356.812 428.09L356.738 427.69L356.664 427.286L356.589 426.885L356.211 424.838M393 431.24H410.803M393 431.24V428.09M374.906 428.09H393M374.906 428.09L374.605 424.838M410.803 431.24H428.607M410.803 431.24L410.911 430.07L411.094 428.09M393 428.09H411.094M393 428.09V424.838M428.607 431.24H446.41M428.607 431.24L429.188 428.09M411.094 428.09H429.188M411.094 428.09L411.395 424.838M446.41 431.24L446.517 430.852L446.625 430.462L447.171 428.49L447.282 428.09M446.41 431.24H464.213M429.188 428.09H447.282M429.188 428.09L429.262 427.69L429.336 427.286L429.411 426.885L429.637 425.661L429.789 424.838M447.282 428.09H465.376M447.282 428.09L448.183 424.838M464.213 431.24H482.017M464.213 431.24L465.229 428.49L465.376 428.09M482.017 431.24H499.82M482.017 431.24L482.556 430.07L482.737 429.678L483.102 428.888L483.286 428.49L483.47 428.09M465.376 428.09H483.47M465.376 428.09L465.524 427.69L465.673 427.286L465.822 426.885L466.578 424.838M499.82 431.24H517.623M499.82 431.24L500.467 430.07L501.122 428.888L501.343 428.49L501.564 428.09M483.47 428.09H501.564M483.47 428.09L483.841 427.286L484.592 425.661L484.972 424.838M517.623 431.24H535.426M517.623 431.24L519.658 428.09M501.564 428.09H519.658M501.564 428.09L502.009 427.286L502.233 426.885L502.458 426.477L503.366 424.838M535.426 431.24H553.229M535.426 431.24L536 430.462L537.752 428.09M519.658 428.09L519.917 427.69L521.761 424.838M519.658 428.09H537.752M553.229 431.24H571.034M553.229 431.24L555.844 428.09M537.752 428.09H555.844M537.752 428.09L538.048 427.69L540.155 424.838M571.034 431.24H588.834M571.034 431.24L573.938 428.09M555.844 428.09H573.938M555.844 428.09L556.515 427.286L556.848 426.885L558.551 424.838M588.834 431.24H606.639M588.834 431.24L592.033 428.09M573.938 428.09H592.033M573.938 428.09L574.309 427.69L574.681 427.286L576.946 424.838M606.639 431.24H624.444M606.639 431.24L610.127 428.09M592.033 428.09H610.127M592.033 428.09L592.851 427.286L593.261 426.885L595.34 424.838M624.444 431.24H642.244M624.444 431.24L628.221 428.09M610.127 428.09H628.221M610.127 428.09L610.575 427.69L613.735 424.838M642.244 431.24H660.049M642.244 431.24L646.316 428.09M628.221 428.09H646.316M628.221 428.09L629.188 427.286L629.673 426.885L632.13 424.838M660.049 431.24H677.854M660.049 431.24L664.41 428.09M646.316 428.09H664.41M646.316 428.09L650.524 424.838M677.854 431.24H695.654M677.854 431.24L682.505 428.09M664.41 428.09H682.505M664.41 428.09L665.524 427.286L668.919 424.838M695.654 431.24H713.459M695.654 431.24L700.599 428.09M682.505 428.09H700.599M682.505 428.09L683.689 427.286L684.289 426.885L687.313 424.838M713.459 431.24H731.264M713.459 431.24L718.693 428.09M700.599 428.09H718.693M700.599 428.09L705.702 424.838M731.264 431.24H749.063M731.264 431.24L736.788 428.09M718.693 428.09H736.788M718.693 428.09L724.103 424.838M749.063 431.24H766.869M749.063 431.24L754.882 428.09M736.788 428.09H754.882M736.788 428.09L742.492 424.838M766.869 431.24L769.09 431.238L771.29 431.232L773.44 431.213L775.526 431.175L777.523 431.115L779.406 431.023L781.153 430.893L782.78 430.731L784.171 430.505L785.438 430.242L785.787 430.15V428.09M766.869 431.24L772.976 428.09M754.882 428.09H772.976M754.882 428.09L756.361 427.286L760.886 424.838M785.787 428.09H772.976M785.787 428.09V424.838M772.976 428.09L779.281 424.838M742.492 424.838L748.392 421.475M742.492 424.838H724.103M742.492 424.838H760.886M724.103 424.838L729.692 421.475M724.103 424.838H705.702M668.919 424.838L673.575 421.475M668.919 424.838H650.524M668.919 424.838H687.313M650.524 424.838L654.869 421.475M650.524 424.838H632.13M595.34 424.838L598.757 421.475M595.34 424.838H576.946M595.34 424.838H613.735M576.946 424.838L578.873 422.749L580.052 421.475M576.946 424.838H558.551M521.761 424.838L523.935 421.475M521.761 424.838H503.366M521.761 424.838H540.155M503.366 424.838L504.524 422.749L505.23 421.475M503.366 424.838H484.972M448.183 424.838L448.414 424.007L448.762 422.749L448.997 421.902L449.115 421.475M448.183 424.838H429.789M448.183 424.838H466.578M429.789 424.838L430.02 423.59L430.331 421.902L430.41 421.475M429.789 424.838H411.395M374.605 424.838L374.567 424.423L374.529 424.007L374.49 423.59L374.452 423.17L374.412 422.749L374.295 421.475M374.605 424.838H356.211M374.605 424.838H393M356.211 424.838L355.98 423.59L355.669 421.902L355.59 421.475M356.211 424.838H337.817M301.028 424.838L300.644 424.007L299.475 421.475M301.028 424.838H282.634M301.028 424.838H319.423M282.634 424.838L281.476 422.749L280.77 421.475M282.634 424.838H264.239M227.45 424.838L225.009 421.902L224.655 421.475M227.45 424.838H209.056M227.45 424.838H245.844M209.056 424.838L207.127 422.749L205.95 421.475M209.056 424.838H190.661M153.873 424.838L149.835 421.475M153.873 424.838H135.478M153.873 424.838H172.267M135.478 424.838L131.13 421.475M135.478 424.838H117.083M80.2948 424.838L75.015 421.475M80.2948 424.838H98.6894M80.2948 424.838H61.9002M61.9002 424.838L56.3104 421.475M61.9002 424.838H43.5056M785.853 398.64H785.787M785.787 398.64H767.638M785.787 398.64V394.324M785.787 398.64V400.16M767.638 398.64L760.733 402.796M767.638 398.64L774.81 394.324M767.638 398.64H746.826M760.733 402.796H781.164M760.733 402.796L754.074 406.803M760.733 402.796H740.303M774.81 394.324L782.267 389.839M774.81 394.324H753.599M774.81 394.324H785.787M746.826 398.64L740.303 402.796M746.826 398.64L753.599 394.324M746.826 398.64H726.013M781.164 402.796L774.134 406.803M781.164 402.796H785.787M781.164 402.796L785.787 400.16M754.074 406.803L747.65 410.666M754.074 406.803H734.015M754.074 406.803H774.134M740.303 402.796L734.015 406.803M740.303 402.796H719.872M774.134 406.803L767.354 410.666M774.134 406.803H785.787M785.787 402.796V400.16M785.787 402.796V406.803M760.815 414.394H741.455M760.815 414.394L754.5 417.995M760.815 414.394H780.17M760.815 414.394L767.354 410.666M741.455 414.394L735.472 417.995M741.455 414.394L747.65 410.666M741.455 414.394H722.099M754.5 417.995H735.472M754.5 417.995L748.392 421.475M754.5 417.995H773.522M780.17 414.394L773.522 417.995M780.17 414.394H785.787M780.17 414.394L785.787 411.354M767.354 410.666H747.65M767.354 410.666H785.787M735.472 417.995H716.444M735.472 417.995L729.692 421.475M747.65 410.666H727.951M722.099 414.394L716.444 417.995M722.099 414.394L727.951 410.666M722.099 414.394H702.739M748.392 421.475H729.692M748.392 421.475H767.098M773.522 417.995L767.098 421.475M773.522 417.995H785.787M716.444 417.995H697.417M716.444 417.995L710.986 421.475M729.692 421.475H710.986M785.989 333.035H785.787M785.787 333.035H769.194M785.787 333.035V339.925M785.787 333.035V325.8V320.198M769.194 333.035L760.286 339.925M769.194 333.035L778.544 325.802M769.194 333.035H742.322M760.286 339.925L751.787 346.498M760.286 339.925H734.053M760.286 339.925H785.787M778.544 325.802L751.007 325.8M778.544 325.802H785.787M778.544 325.802L785.787 320.198M742.322 333.035L734.053 339.925M742.322 333.035L751.007 325.8M742.322 333.035H715.451M751.787 346.498H777.42M751.787 346.498L743.676 352.774M751.787 346.498H726.16M734.053 339.925L726.16 346.498M734.053 339.925H707.815M785.787 339.925V340.454M777.42 346.498L768.724 352.774M777.42 346.498H785.787M777.42 346.498L785.787 340.454M768.724 352.774L760.417 358.772M768.724 352.774H743.676M768.724 352.774H785.787M785.787 346.498V340.454M785.787 346.498V352.774M760.417 358.772H735.925M760.417 358.772L752.469 364.51M760.417 358.772H784.914M735.925 358.772L728.507 364.51M735.925 358.772L743.676 352.774M735.925 358.772H711.428M752.469 364.51H728.507M752.469 364.51H776.437M752.469 364.51L744.861 370.004M784.914 358.772L776.437 364.51M784.914 358.772H785.787M784.914 358.772L785.787 358.178M728.507 364.51L721.406 370.004M728.507 364.51H704.54M743.676 352.774H718.628M711.428 358.772L704.54 364.51M711.428 358.772L718.628 352.774M711.428 358.772L686.937 358.77M776.437 364.51L768.32 370.004M776.437 364.51H785.787M744.861 370.004H721.406M744.861 370.004H768.32M744.861 370.004L737.568 375.271M721.406 370.004L714.594 375.271M721.406 370.004H697.946M704.54 364.51L697.946 370.004M704.54 364.51H680.578M730.565 380.324H708.06M730.565 380.324L723.846 385.178M730.565 380.324H753.07M730.565 380.324L737.568 375.271M708.06 380.324L701.789 385.178M708.06 380.324L714.594 375.271M708.06 380.324H685.556M723.846 385.178H701.789M723.846 385.178H745.903M723.846 385.178L717.389 389.839M753.07 380.324H775.575M753.07 380.324L745.903 385.178M753.07 380.324L760.537 375.271M737.568 375.271H714.594M737.568 375.271H760.537M701.789 385.178L695.763 389.839M701.789 385.178H679.732M714.594 375.271H691.625M685.556 380.324L679.732 385.178M685.556 380.324L691.625 375.271M685.556 380.324H663.051M745.903 385.178H767.96M745.903 385.178L739.015 389.839M717.389 389.839H695.763M717.389 389.839H739.015M717.389 389.839L711.177 394.324M695.763 389.839L689.966 394.324M695.763 389.839H674.137M679.732 385.178L674.137 389.839M679.732 385.178H657.675M705.2 398.64H684.388M705.2 398.64L699.442 402.796M705.2 398.64H726.013M705.2 398.64L711.177 394.324M684.388 398.64L679.011 402.796M684.388 398.64L689.966 394.324M684.388 398.64H663.575M699.442 402.796H679.011M699.442 402.796H719.872M699.442 402.796L693.896 406.803M726.013 398.64L719.872 402.796M726.013 398.64L732.388 394.324M711.177 394.324H689.966M711.177 394.324H732.388M679.011 402.796L673.837 406.803M679.011 402.796H658.586M689.966 394.324H668.755M663.575 398.64L658.586 402.796M663.575 398.64L668.755 394.324M663.575 398.64H642.762M719.872 402.796L713.955 406.803M693.896 406.803H673.837M693.896 406.803H713.955M693.896 406.803L688.541 410.666M673.837 406.803L668.842 410.666M673.837 406.803H653.777M658.586 402.796L653.777 406.803M658.586 402.796H638.156M683.378 414.394H664.023M683.378 414.394L678.394 417.995M683.378 414.394H702.739M683.378 414.394L688.541 410.666M664.023 414.394L659.367 417.995M664.023 414.394L668.842 410.666M664.023 414.394H644.662M678.394 417.995H659.367M678.394 417.995L673.575 421.475M678.394 417.995H697.417M702.739 414.394L697.417 417.995M702.739 414.394L708.246 410.666M688.541 410.666H668.842M688.541 410.666H708.246M659.367 417.995H640.339M659.367 417.995L654.869 421.475M668.842 410.666H649.138M644.662 414.394L640.339 417.995M644.662 414.394L649.138 410.666M644.662 414.394H625.301M673.575 421.475H654.869M673.575 421.475H692.28M697.417 417.995L692.28 421.475M640.339 417.995H621.317M640.339 417.995L636.163 421.475M654.869 421.475H636.163M772.021 213.564L759.483 227.142M772.021 213.564L785.449 199.023M772.021 213.564H734.119M772.021 213.564H785.787M759.483 227.142L747.748 239.852M759.483 227.142H722.836M759.483 227.142H785.787M785.449 199.023H746.203M785.449 199.023H785.787M785.449 199.023L785.787 198.655M734.119 213.564L722.836 227.142M734.119 213.564L746.203 199.023M734.119 213.564L696.216 213.562M785.787 213.564V199.023M785.787 213.564V227.142M747.748 239.852L736.744 251.772M747.748 239.852H712.274M747.748 239.852H783.222M722.836 227.142L712.274 239.852M722.836 227.142L686.189 227.14M785.787 227.142V237.327M759.74 262.974H726.401M759.74 262.974L749.025 273.524M759.74 262.974L771.115 251.772M759.74 262.974H785.787M726.401 262.974L716.657 273.524M726.401 262.974L736.744 251.772M726.401 262.974H693.061M749.025 273.524H716.657M749.025 273.524H781.393M749.025 273.524L738.922 283.474M771.115 251.772H736.744M771.115 251.772L783.222 239.852M771.115 251.772H785.787M716.657 273.524L707.471 283.474M716.657 273.524H684.295M736.744 251.772H702.367M693.061 262.974L684.295 273.524M693.061 262.974L702.367 251.772M693.061 262.974H659.721M781.393 273.524L770.367 283.474M781.393 273.524H785.787M781.393 273.524L785.787 269.555M738.922 283.474H707.471M738.922 283.474H770.367M738.922 283.474L729.37 292.873M707.471 283.474L698.792 292.873M707.471 283.474H676.026M684.295 273.524L676.026 283.474M684.295 273.524L651.927 273.522M720.336 301.768H690.577M720.336 301.768L711.772 310.199M720.336 301.768H750.095M720.336 301.768L729.37 292.873M690.577 301.768L682.794 310.199M690.577 301.768L698.792 292.873M690.577 301.768H660.819M711.772 310.199H682.794M711.772 310.199H740.756M711.772 310.199L703.65 318.198M750.095 301.768H779.854M750.095 301.768L740.756 310.199M750.095 301.768L759.953 292.873M729.37 292.873H698.792M729.37 292.873H759.953M682.794 310.199L675.409 318.198M682.794 310.199H653.816M698.792 292.873H668.215M660.819 301.768L653.816 310.199M660.819 301.768L668.215 292.873M660.819 301.768H631.065M740.756 310.199H769.734M740.756 310.199L731.892 318.198M703.65 318.198H675.409M703.65 318.198H731.892M703.65 318.198L695.927 325.8M675.409 318.198L668.389 325.8M675.409 318.198H647.167M653.816 310.199L647.167 318.198M653.816 310.199H624.837M688.58 333.035H661.708M688.58 333.035L681.582 339.925M688.58 333.035H715.451M688.58 333.035L695.927 325.8M661.708 333.035L655.349 339.925M661.708 333.035L668.389 325.8M661.708 333.035H634.837M681.582 339.925H655.349M681.582 339.925H707.815M681.582 339.925L674.907 346.498M715.451 333.035L707.815 339.925M715.451 333.035L723.464 325.8M695.927 325.8H668.389M695.927 325.8H723.464M655.349 339.925L649.28 346.498M655.349 339.925H629.111M668.389 325.8H640.852M634.837 333.035L629.111 339.925M634.837 333.035L640.852 325.8M634.837 333.035L607.966 333.033M707.815 339.925L700.533 346.498M674.907 346.498H649.28M674.907 346.498H700.533M674.907 346.498L668.531 352.774M649.28 346.498L643.483 352.774M649.28 346.498H623.653M629.111 339.925L623.653 346.498M629.111 339.925L602.878 339.923M662.44 358.77H637.948M662.44 358.77L656.61 364.51M662.44 358.77H686.937M662.44 358.77L668.531 352.774M637.948 358.77L632.648 364.51M637.948 358.77L643.483 352.774M637.948 358.77H613.451M656.61 364.51H632.648M656.61 364.51H680.578M656.61 364.51L651.032 370.004M686.937 358.77L680.578 364.51M686.937 358.77L693.58 352.774M668.531 352.774H643.483M668.531 352.774H693.58M632.648 364.51L627.572 370.004M632.648 364.51H608.681M643.483 352.774H618.435M613.451 358.77L608.681 364.51M613.451 358.77L618.435 352.774M613.451 358.77H588.954M680.578 364.51L674.486 370.004M651.032 370.004H627.572M651.032 370.004H674.486M651.032 370.004L645.683 375.271M627.572 370.004L622.708 375.271M627.572 370.004H604.117M608.681 364.51L604.117 370.004M608.681 364.51H584.719M640.546 380.324H618.047M640.546 380.324L635.623 385.178M640.546 380.324H663.051M640.546 380.324L645.683 375.271M618.047 380.324L617.474 380.942L613.566 385.178M618.047 380.324L622.708 375.271M618.047 380.324H595.542M635.623 385.178H613.566M635.623 385.178H657.675M635.623 385.178L630.885 389.839M663.051 380.324L657.675 385.178M663.051 380.324L668.651 375.271M645.683 375.271H622.708M645.683 375.271H668.651M613.566 385.178L609.259 389.839M613.566 385.178H591.509M622.708 375.271H599.74M595.542 380.324L591.509 385.178M595.542 380.324L599.74 375.271M595.542 380.324L573.038 380.322M657.675 385.178L652.511 389.839M630.885 389.839H609.259M630.885 389.839H652.511M630.885 389.839L626.333 394.324M609.259 389.839L605.629 393.773L605.116 394.324M609.259 389.839H587.633M591.509 385.178L587.633 389.839M591.509 385.178H569.452M621.944 398.64H601.132M621.944 398.64L617.725 402.796M621.944 398.64H642.762M621.944 398.64L626.333 394.324M601.132 398.64L597.295 402.796M601.132 398.64L602.611 397.041L605.116 394.324M601.132 398.64H580.319M617.725 402.796H597.295M617.725 402.796H638.156M617.725 402.796L613.659 406.803M642.762 398.64L638.723 402.286L638.156 402.796M642.762 398.64L647.544 394.324M626.333 394.324H605.116M626.333 394.324H647.544M597.295 402.796L593.599 406.803M597.295 402.796H576.864M605.116 394.324H583.905M580.319 398.64L576.864 402.796M580.319 398.64L581.203 397.576L583.905 394.324M580.319 398.64H559.507M638.156 402.796L633.718 406.803M613.659 406.803H593.599M613.659 406.803H633.718M613.659 406.803L609.734 410.666M593.599 406.803L590.029 410.666M593.599 406.803H573.534M576.864 402.796L573.534 406.803M576.864 402.796L556.439 402.794M605.946 414.394H586.585M605.946 414.394L602.289 417.995M605.946 414.394H625.301M605.946 414.394L609.734 410.666M586.585 414.394L584.08 417.107L583.67 417.552L583.261 417.995M586.585 414.394L590.029 410.666M586.585 414.394H567.23M602.289 417.995H583.261M602.289 417.995L598.757 421.475M602.289 417.995H621.317M625.301 414.394L621.317 417.995M625.301 414.394L629.433 410.666M609.734 410.666H590.029M609.734 410.666H629.433M583.261 417.995H564.233M583.261 417.995L580.052 421.475M590.029 410.666H570.325M567.23 414.394L564.233 417.995M567.23 414.394L570.325 410.666M567.23 414.394H547.869M598.757 421.475H580.052M598.757 421.475H617.458M621.317 417.995L617.458 421.475M564.233 417.995H545.209M564.233 417.995L561.346 421.475M580.052 421.475H561.346M758.288 58.8878H706.106M758.288 58.8878L741.858 84.3114M758.288 58.8878L776.344 30.9513M758.288 58.8878H785.787M706.106 58.8878L692.018 84.3114M706.106 58.8878L721.581 30.9513M706.106 58.8878H653.919M741.858 84.3114H692.018M741.858 84.3114L726.843 107.543M741.858 84.3114L785.787 84.3094M776.344 30.9513H721.581M776.344 30.9513L785.787 16.3401M776.344 30.9513H785.787M785.787 58.8878V30.9513M785.787 58.8878V84.3094M692.018 84.3114L679.148 107.543M692.018 84.3114L642.184 84.3094M721.581 30.9513L738.665 0.10977M721.581 30.9513H666.817M653.919 58.8878L642.184 84.3094M653.919 58.8878L666.817 30.9513M653.919 58.8878H601.738M726.843 107.543H679.148M726.843 107.543H774.532M726.843 107.543L713.06 128.86M785.787 84.3094V92.305M679.148 107.543L667.341 128.858M679.148 107.543H631.458M642.184 84.3094L631.458 107.543M642.184 84.3094L592.349 84.3114M700.375 148.486H656.468M700.375 148.486L688.662 166.617M700.375 148.486H744.287M700.375 148.486L713.06 128.86M656.468 148.486L646.42 166.616M656.468 148.486L667.341 128.858M656.468 148.486L612.556 148.484M688.662 166.617L646.42 166.616M688.662 166.617L730.898 166.616M688.662 166.617L677.799 183.414M744.287 148.486L730.898 166.616M744.287 148.486L758.785 128.86M744.287 148.486H785.787M713.06 128.86L667.341 128.858M713.06 128.86H758.785M646.42 166.616L637.113 183.414M646.42 166.616H604.183M667.341 128.858L621.617 128.86M612.556 148.484L604.183 166.616M612.556 148.484L621.617 128.86M612.556 148.484L568.644 148.486M730.898 166.616H773.135M730.898 166.616L718.486 183.416M677.799 183.414H637.113M677.799 183.414L718.486 183.416M677.799 183.414L667.712 199.021M637.113 183.414L628.467 199.021M637.113 183.414H596.432M604.183 166.616L596.432 183.414M604.183 166.616H561.946M658.313 213.562H620.411M658.313 213.562L649.536 227.14M658.313 213.562H696.216M658.313 213.562L667.712 199.021M620.411 213.562L612.889 227.14M620.411 213.562L628.467 199.021M620.411 213.562H582.513M649.536 227.14H612.889M649.536 227.14H686.189M649.536 227.14L641.327 239.85M696.216 213.562L686.189 227.14M696.216 213.562L706.958 199.023M667.712 199.021H628.467M667.712 199.021L706.958 199.023M612.889 227.14L605.848 239.85M612.889 227.14H576.242M628.467 199.021L589.222 199.023M582.513 213.562L576.242 227.14M582.513 213.562L589.222 199.023M582.513 213.562H544.608M686.189 227.14L676.801 239.852M641.327 239.85H605.848M641.327 239.85L676.801 239.852M641.327 239.85L633.62 251.77M605.848 239.85L599.243 251.77M605.848 239.85L570.374 239.852M576.242 227.14L570.374 239.852M576.242 227.14H539.593M626.382 262.972H593.037M626.382 262.972L619.559 273.522M626.382 262.972H659.721M626.382 262.972L633.62 251.77M593.037 262.972L587.197 273.522M593.037 262.972L599.243 251.77M593.037 262.972H559.698M619.559 273.522H587.197M619.559 273.522H651.927M619.559 273.522L613.129 283.472M633.62 251.77H599.243M633.62 251.77L667.996 251.772M587.197 273.522L581.684 283.472M587.197 273.522H554.829M599.243 251.77L564.872 251.772M651.927 273.522L644.58 283.474M651.927 273.522L659.721 262.974M613.129 283.472H581.684M613.129 283.472L644.58 283.474M613.129 283.472L607.054 292.871M581.684 283.472L576.476 292.871M581.684 283.472L550.238 283.474M554.829 273.522L550.238 283.474M554.829 273.522L559.698 262.974M554.829 273.522H522.463M601.306 301.766H571.548M601.306 301.766L595.859 310.197M601.306 301.766H631.065M601.306 301.766L607.054 292.871M571.548 301.766L566.875 310.197M571.548 301.766L576.476 292.871M571.548 301.766H541.789M595.859 310.197H566.875M595.859 310.197H624.837M595.859 310.197L590.684 318.196M607.054 292.871H576.476M607.054 292.871L637.632 292.873M566.875 310.197L562.443 318.196M566.875 310.197H537.897M576.476 292.871L545.899 292.873M590.684 318.196H562.443M590.684 318.196L618.926 318.198M590.684 318.196L585.772 325.8M562.443 318.196L558.235 325.8M562.443 318.196L534.204 318.198M581.094 333.033H554.228M581.094 333.033L576.64 339.923M581.094 333.033H607.966M581.094 333.033L585.772 325.798M554.228 333.033L550.407 339.923M554.228 333.033L558.235 325.798M554.228 333.033H527.355M576.64 339.923H550.407M576.64 339.923H602.878M576.64 339.923L572.394 346.496M607.966 333.033L602.878 339.923M607.966 333.033L613.309 325.8M550.407 339.923L546.767 346.496M550.407 339.923H524.174M527.355 333.033L524.174 339.923M527.355 333.033L530.695 325.8M527.355 333.033H500.484M602.878 339.923L598.02 346.498M524.174 339.923L522.26 344.069L521.139 346.498M524.174 339.923H497.939M564.463 358.768H539.967M564.463 358.768L560.751 364.508M564.463 358.768H588.954M564.463 358.768L568.338 352.772M539.967 358.768L536.789 364.508M539.967 358.768L543.29 352.772M539.967 358.768H515.473M560.751 364.508H536.789M560.751 364.508H584.719M560.751 364.508L557.203 370.002M536.789 364.508L533.744 370.002M536.789 364.508H512.824M557.203 370.002H533.744M557.203 370.002L580.658 370.004M557.203 370.002L553.797 375.271M533.744 370.002L532.27 372.666L530.826 375.271M533.744 370.002L510.287 370.004M550.533 380.322H528.026M550.533 380.322L547.394 385.176M550.533 380.322H573.038M550.533 380.322L553.797 375.269M528.026 380.322L528.371 379.703L530.826 375.269M528.026 380.322L525.338 385.176M528.026 380.322H505.522M547.394 385.176H525.338M547.394 385.176H569.452M547.394 385.176L544.381 389.837M573.038 380.322L569.452 385.178M573.038 380.322L576.766 375.271M525.338 385.176L522.755 389.837M525.338 385.176H503.282M505.522 380.322L503.282 385.178M505.522 380.322L507.855 375.271M505.522 380.322H483.018M544.381 389.837H522.755M544.381 389.837L566.007 389.839M544.381 389.837L541.483 394.324M522.755 389.837L520.271 394.324M522.755 389.837L501.13 389.839M538.693 398.638H517.88M538.693 398.638L536.007 402.794M538.693 398.638H559.507M538.693 398.638L541.483 394.322M517.88 398.638L515.577 402.794M517.88 398.638L518.766 397.039L519.364 395.959L520.271 394.322M517.88 398.638H497.067M536.007 402.794H515.577M536.007 402.794H556.439M536.007 402.794L533.418 406.801M515.577 402.794L514.736 404.313L514.18 405.315L513.358 406.801M515.577 402.794H495.148M556.439 402.794L553.475 406.803M556.439 402.794L559.507 398.64M495.148 402.794L494.913 403.306L494.679 403.811L493.754 405.815L493.298 406.803M495.148 402.794L496.58 399.695L497.067 398.64M495.148 402.794H474.718M528.51 414.392H509.152M528.51 414.392L526.758 417.105L526.183 417.993M528.51 414.392H547.869M528.51 414.392L530.614 411.138L530.92 410.664M509.152 414.392L507.649 417.105L507.403 417.55L507.157 417.993M509.152 414.392L510.176 412.546L511.218 410.664M509.152 414.392H489.793M526.183 417.993H507.157M526.183 417.993L523.935 421.475M526.183 417.993L545.209 417.995M530.92 410.664H511.218M530.92 410.664L531.536 409.713L533.418 406.803M530.92 410.664L550.626 410.666M507.157 417.993L488.131 417.995M507.157 417.993L505.23 421.475M511.218 410.664L512.278 408.751L513.358 406.803M511.218 410.664L491.515 410.666M523.935 421.475H505.23M523.935 421.475H542.64M545.209 417.995L547.869 414.394M545.209 417.995L543.274 420.616L542.64 421.475M488.131 417.995L489.793 414.394M488.131 417.995L469.105 417.993M488.131 417.995L486.922 420.616L486.525 421.475M505.23 421.475H486.525M549.55 58.8878H497.368M549.55 58.8878L542.51 84.3114M549.55 58.8878H601.738M549.55 58.8878L557.29 30.9513M497.368 58.8878L492.674 84.3114M497.368 58.8878L502.527 30.9513M497.368 58.8878H445.184M542.51 84.3114H492.674M542.51 84.3114H592.349M542.51 84.3114L536.074 107.543M601.738 58.8878L592.349 84.3114M601.738 58.8878L612.054 30.9513M557.29 30.9513H502.527M557.29 30.9513L565.833 0.10977M557.29 30.9513H612.054M492.674 84.3114L488.383 107.543M492.674 84.3114L442.837 84.3094M502.527 30.9513L508.223 0.10977M502.527 30.9513H447.763M445.184 58.8878L442.837 84.3094M445.184 58.8878L447.763 30.9513M445.184 58.8878H393M592.349 84.3114L583.763 107.543M536.074 107.543H488.383M536.074 107.543H583.763M536.074 107.543L530.17 128.86M488.383 107.543H440.692M442.837 84.3094L440.692 107.543M442.837 84.3094L393 84.3114M524.733 148.486H480.822M524.733 148.486L519.711 166.617M524.733 148.486H568.644M524.733 148.486L530.17 128.86M480.822 148.486L477.474 166.616M480.822 148.486L484.446 128.858M480.822 148.486L436.911 148.484M519.711 166.617L477.474 166.616M519.711 166.617L561.946 166.616M519.711 166.617L515.058 183.414M568.644 148.486L561.946 166.616M568.644 148.486L575.892 128.862M530.17 128.86L484.446 128.862M530.17 128.86L575.892 128.862M477.474 166.616L474.372 183.414M477.474 166.616H435.237M436.911 148.484L435.237 166.616M436.911 148.484L438.723 128.86M436.911 148.484L393 148.486M561.946 166.616L555.746 183.416M515.058 183.414H474.372M515.058 183.414L555.746 183.416M515.058 183.414L510.734 199.021M474.372 183.414L471.489 199.021M474.372 183.414H433.686M435.237 166.616L433.686 183.414M435.237 166.616H393M506.706 213.562H468.804M506.706 213.562L502.945 227.14M506.706 213.562H544.608M506.706 213.562L510.734 199.021M468.804 213.562L466.297 227.14M468.804 213.562L471.489 199.021M468.804 213.562H430.902M502.945 227.14H466.297M502.945 227.14H539.593M502.945 227.14L499.425 239.85M544.608 213.562L539.593 227.14M544.608 213.562L549.982 199.023M510.734 199.021H471.489M510.734 199.021L549.982 199.023M466.297 227.14L463.95 239.85M466.297 227.14H429.648M471.489 199.021L432.245 199.023M430.902 213.562L429.648 227.14M430.902 213.562L432.245 199.023M430.902 213.562H393M539.593 227.14L534.9 239.852M499.425 239.85H463.95M499.425 239.85L534.9 239.852M499.425 239.85L496.123 251.77M463.95 239.85L461.749 251.77M463.95 239.85L428.475 239.852M429.648 227.14L428.475 239.852M429.648 227.14H393M493.02 262.972H459.68M493.02 262.972L490.098 273.52M493.02 262.972H526.36M493.02 262.972L496.123 251.77M459.68 262.972L457.732 273.52M459.68 262.972L461.749 251.77M459.68 262.972H426.34M490.098 273.52H457.732M490.098 273.52H522.463M490.098 273.52L487.342 283.472M496.123 251.77H461.749M496.123 251.77L530.497 251.772M457.732 273.52L455.894 283.472M457.732 273.52H425.366M461.749 251.77L427.374 251.772M487.342 283.472H455.894M487.342 283.472L518.789 283.474M487.342 283.472L484.738 292.871M455.894 283.472L454.158 292.871M455.894 283.472L424.447 283.474M482.274 301.766H452.516M482.274 301.766L479.939 310.197M482.274 301.766H512.032M482.274 301.766L484.738 292.871M452.516 301.766L450.959 310.197M452.516 301.766L454.158 292.871M452.516 301.766H422.758M479.939 310.197H450.959M479.939 310.197H508.918M479.939 310.197L477.723 318.196M484.738 292.871H454.158M484.738 292.871L515.317 292.873M450.959 310.197L449.482 318.196M450.959 310.197H421.979M454.158 292.871L423.579 292.873M477.723 318.196H449.482M477.723 318.196L505.963 318.198M477.723 318.196L475.616 325.8M449.482 318.196L448.078 325.8M449.482 318.196L421.241 318.198M473.613 333.033H446.742M473.613 333.033L471.704 339.923M473.613 333.033H500.484M473.613 333.033L475.616 325.798M446.742 333.033L445.469 339.923M446.742 333.033L448.078 325.798M446.742 333.033H419.871M471.704 339.923H445.469M471.704 339.923H497.939M471.704 339.923L471.011 342.424L469.883 346.496M500.484 333.033L497.939 339.923M500.484 333.033L503.156 325.8M445.469 339.923L444.255 346.496M445.469 339.923H419.234M419.871 333.033L419.234 339.923M419.871 333.033L420.539 325.8M419.871 333.033H393M497.939 339.923L495.511 346.498M419.234 339.923L418.628 346.498M419.234 339.923H393M466.484 358.768H441.989M466.484 358.768L464.894 364.508M466.484 358.768H490.979M466.484 358.768L467.722 354.295L468.145 352.772M441.989 358.768L441.586 360.95L440.93 364.508M441.989 358.768L443.097 352.772M441.989 358.768H417.494M464.894 364.508L464.701 365.207L463.372 370.002M464.894 364.508H440.93M464.894 364.508H488.859M440.93 364.508L440.544 366.595L440.417 367.285L440.29 367.969L439.915 370.002M440.93 364.508H416.965M463.372 370.002H439.915M463.372 370.002L486.829 370.004M463.372 370.002L461.913 375.271M439.915 370.002L439.545 372.005L439.424 372.666L438.942 375.271M439.915 370.002L416.457 370.004M460.514 380.322H438.009M460.514 380.322L459.835 382.773L459.667 383.378L459.501 383.98L459.334 384.58L459.169 385.176M460.514 380.322H483.018M460.514 380.322L461.913 375.269M438.009 380.322L437.334 383.98L437.223 384.58L437.113 385.176M438.009 380.322L438.942 375.269M438.009 380.322H415.504M459.169 385.176H437.113M459.169 385.176H481.226M459.169 385.176L458.356 388.11L458.196 388.69L457.878 389.837M483.018 380.322L481.667 383.982L481.226 385.178M483.018 380.322L483.709 378.454L484.411 376.555L484.885 375.271M437.113 385.176L436.571 388.11L436.464 388.69L436.358 389.265L436.252 389.837M437.113 385.176H415.056M415.504 380.322L415.056 385.178M415.504 380.322L415.677 378.454L415.852 376.555L415.971 375.271M415.504 380.322H393M457.878 389.837H436.252M457.878 389.837L479.504 389.839M457.878 389.837L456.635 394.324M436.252 389.837L435.424 394.324M436.252 389.837L414.626 389.839M455.44 398.638H434.626M455.44 398.638L454.288 402.794M455.44 398.638H476.254M455.44 398.638L455.735 397.574L456.182 395.959L456.635 394.322M434.626 398.638L434.725 398.107L435.322 394.871L435.424 394.322M434.626 398.638L433.859 402.794M434.626 398.638H413.813M454.288 402.794H433.859M454.288 402.794H474.718M454.288 402.794L453.179 406.801M433.859 402.794L433.578 404.313L433.486 404.817L433.393 405.315L433.119 406.801M433.859 402.794H413.429M474.718 402.794L473.239 406.803M474.718 402.794L474.907 402.286L476.254 398.64M413.429 402.794L413.477 402.286L413.524 401.773L413.813 398.64M413.429 402.794L413.059 406.803M413.429 402.794H393M451.076 414.392H431.718M451.076 414.392L450.325 417.105L450.079 417.993M451.076 414.392H470.435M451.076 414.392L451.459 413.01L451.588 412.546L451.717 412.077L452.109 410.664M431.718 414.392L431.633 414.849L431.465 415.757L431.299 416.658L431.053 417.993M431.718 414.392L432.059 412.546L432.144 412.077L432.319 411.137L432.406 410.664M431.718 414.392H412.359M450.079 417.993H431.053M450.079 417.993L449.234 421.043L449.115 421.473M450.079 417.993H469.105M452.109 410.664H432.406M452.109 410.664L452.24 410.19L452.373 409.713L452.505 409.233L452.639 408.751L452.773 408.267L452.908 407.781L453.179 406.803M452.109 410.664L471.812 410.666M431.053 417.993L430.971 418.434L430.89 418.873L430.809 419.312L430.729 419.748L430.489 421.043L430.41 421.473M431.053 417.993H412.026M432.406 410.664L432.494 410.19L432.582 409.713L432.671 409.233L432.759 408.751L432.939 407.781L433.029 407.293L433.119 406.803M432.406 410.664L412.703 410.666M469.105 417.993L470.435 414.394M469.105 417.993L468.457 419.75L467.978 421.045L467.82 421.475M412.026 417.993L412.359 414.394M412.026 417.993L411.986 418.436L411.945 418.875L411.904 419.314L411.705 421.475M412.026 417.993H393M340.816 58.8878H288.632M340.816 58.8878L343.163 84.3114M340.816 58.8878H393M340.816 58.8878L338.237 30.9513M288.632 58.8878L293.326 84.3114M288.632 58.8878L283.473 30.9513M288.632 58.8878H236.447M343.163 84.3114H293.326M343.163 84.3114H393M343.163 84.3114L345.308 107.543M393 58.8878V84.3114M393 58.8878V30.9513M338.237 30.9513H283.473M338.237 30.9513L335.388 0.10977M338.237 30.9513H393M293.326 84.3114L297.617 107.543M293.326 84.3114L243.49 84.3094M283.473 30.9513L277.777 0.10977M283.473 30.9513H228.709M236.447 58.8878L243.49 84.3094M236.447 58.8878L228.709 30.9513M236.447 58.8878H184.263M393 84.3114V107.543M345.308 107.543H297.617M345.308 107.543H393M345.308 107.543L347.277 128.86M297.617 107.543L301.553 128.858M297.617 107.543H249.926M243.49 84.3094L249.926 107.543M243.49 84.3094L193.653 84.3114M349.089 148.486H305.178M349.089 148.486L350.763 166.617M349.089 148.486H393M349.089 148.486L347.277 128.86M305.178 148.486L308.526 166.616M305.178 148.486L301.553 128.858M305.178 148.486L261.267 148.484M350.763 166.617L308.526 166.616M350.763 166.617L393 166.616M350.763 166.617L352.314 183.414M393 148.486V166.616M393 148.486V128.862M347.277 128.86L301.553 128.858M347.277 128.86L393 128.862M308.526 166.616L311.628 183.414M308.526 166.616H266.289M301.553 128.858L255.83 128.86M261.267 148.484L266.289 166.616M261.267 148.484L255.83 128.86M261.267 148.484L217.356 148.486M393 166.616V183.416M352.314 183.414H311.628M352.314 183.414L393 183.416M352.314 183.414L353.755 199.021M311.628 183.414L314.511 199.021M311.628 183.414H270.942M266.289 166.616L270.942 183.414M266.289 166.616H224.052M355.098 213.562H317.196M355.098 213.562L356.352 227.14M355.098 213.562H393M355.098 213.562L353.755 199.021M317.196 213.562L319.703 227.14M317.196 213.562L314.511 199.021M317.196 213.562H279.294M356.352 227.14H319.703M356.352 227.14H393M356.352 227.14L357.525 239.85M393 213.562V227.14M393 213.562V199.023M353.755 199.021H314.511M353.755 199.021L393 199.023M319.703 227.14L322.05 239.85M319.703 227.14H283.055M314.511 199.021L275.266 199.023M279.294 213.562L283.055 227.14M279.294 213.562L275.266 199.023M279.294 213.562H241.392M393 227.14V239.852M357.525 239.85H322.05M357.525 239.85L393 239.852M357.525 239.85L358.626 251.77M322.05 239.85L324.251 251.77M322.05 239.85L286.575 239.852M283.055 227.14L286.575 239.852M283.055 227.14H246.407M359.66 262.972H326.32M359.66 262.972L360.634 273.52M359.66 262.972H393M359.66 262.972L358.626 251.77M326.32 262.972L328.268 273.52M326.32 262.972L324.251 251.77M326.32 262.972H292.98M360.634 273.52H328.268M360.634 273.52H393M360.634 273.52L361.553 283.472M358.626 251.77H324.251M358.626 251.77L393 251.772M328.268 273.52L330.106 283.472M328.268 273.52H295.902M324.251 251.77L289.877 251.772M361.553 283.472H330.106M361.553 283.472L393 283.474M361.553 283.472L362.421 292.871M330.106 283.472L331.842 292.871M330.106 283.472L298.658 283.474M363.242 301.766H333.485M363.242 301.766L364.021 310.197M363.242 301.766H393M363.242 301.766L362.421 292.871M333.485 301.766L335.041 310.197M333.485 301.766L331.842 292.871M333.485 301.766H303.726M364.021 310.197H335.041M364.021 310.197H393M364.021 310.197L364.759 318.196M362.421 292.871H331.842M362.421 292.871L393 292.873M335.041 310.197L336.518 318.196M335.041 310.197H306.061M331.842 292.871L301.262 292.873M364.759 318.196H336.518M364.759 318.196L393 318.198M364.759 318.196L365.375 324.871L365.461 325.8M336.518 318.196L337.922 325.8M336.518 318.196L308.277 318.198M366.129 333.033H339.258M366.129 333.033L366.766 339.923M366.129 333.033H393M366.129 333.033L365.461 325.798M339.258 333.033L340.531 339.923M339.258 333.033L337.922 325.798M339.258 333.033H312.387M366.766 339.923H340.531M366.766 339.923H393M366.766 339.923L367.372 346.496M393 333.033V339.923M393 333.033V325.8M340.531 339.923L341.745 346.496M340.531 339.923H314.296M312.387 333.033L314.296 339.923M312.387 333.033L310.383 325.8M312.387 333.033H285.516M393 339.923V346.498M314.296 339.923L314.759 341.597L316.117 346.498M314.296 339.923H288.061M368.506 358.768H344.011M368.506 358.768L369.035 364.508M368.506 358.768H393M368.506 358.768L367.952 352.772M344.011 358.768L344.94 363.804L345.07 364.508M344.011 358.768L342.903 352.772M344.011 358.768H319.516M369.035 364.508L369.1 365.207L369.543 370.002M369.035 364.508H345.07M369.035 364.508H393M345.07 364.508L345.456 366.595L345.583 367.285L345.71 367.969L346.085 370.002M345.07 364.508H321.106M369.543 370.002H346.085M369.543 370.002L393 370.004M369.543 370.002L369.666 371.341L369.909 373.975L370.029 375.271M346.085 370.002L346.455 372.005L346.576 372.666L347.058 375.271M346.085 370.002L322.628 370.004M370.496 380.322H347.991M370.496 380.322L370.943 385.176M370.496 380.322H393M370.496 380.322L370.323 378.452L370.264 377.823L370.207 377.19L370.089 375.912L370.029 375.269M347.991 380.322L348.666 383.98L348.887 385.176M347.991 380.322L347.058 375.269M347.991 380.322H325.486M370.943 385.176H348.887M370.943 385.176H393M370.943 385.176L371.374 389.837M393 380.322V385.178M393 380.322V375.271M348.887 385.176L349.429 388.11L349.536 388.69L349.642 389.265L349.748 389.837M348.887 385.176H326.831M325.486 380.322L326.333 383.38L326.499 383.982L326.666 384.582L326.831 385.178M325.486 380.322L324.265 375.914L324.087 375.271M325.486 380.322H302.982M371.374 389.837H349.748M371.374 389.837L393 389.839M371.374 389.837L371.788 394.324M349.748 389.837L350.576 394.324M349.748 389.837L328.122 389.839M372.187 398.638H351.374M372.187 398.638L372.571 402.794M372.187 398.638H393M372.187 398.638L371.788 394.322M351.374 398.638L351.275 398.107L350.678 394.871L350.576 394.322M351.374 398.638L352.141 402.794M351.374 398.638H330.56M372.571 402.794H352.141M372.571 402.794H393M372.571 402.794L372.94 406.801M352.141 402.794L352.422 404.313L352.514 404.815L352.607 405.315L352.881 406.801M352.141 402.794H331.712M393 402.794V406.803M393 402.794V398.64M331.712 402.794L332.821 406.803M331.712 402.794L330.56 398.64M331.712 402.794H311.282M373.641 414.392H354.282M373.641 414.392L373.974 417.993M373.641 414.392H393M373.641 414.392L373.297 410.664M354.282 414.392L354.367 414.849L354.535 415.757L354.618 416.209L354.783 417.105L354.865 417.55L354.948 417.993M354.282 414.392L353.941 412.546L353.856 412.077L353.681 411.137L353.594 410.664M354.282 414.392H334.924M373.974 417.993L374.014 418.434L374.055 418.873L374.096 419.312L374.295 421.473M373.974 417.993H354.948M373.974 417.993H393M373.297 410.664H353.594M373.297 410.664L372.94 406.803M373.297 410.664L393 410.666M354.948 417.993H335.921M354.948 417.993L355.11 418.873L355.191 419.312L355.271 419.748L355.511 421.043L355.59 421.473M353.594 410.664L353.506 410.19L353.418 409.713L353.329 409.233L353.241 408.751L352.971 407.293L352.881 406.803M353.594 410.664L333.891 410.666M393 417.993V414.394M393 417.993V421.475M335.921 417.993L335.676 417.107L334.924 414.394M335.921 417.993H316.895M335.921 417.993L336.647 420.616L336.885 421.475M132.079 58.8878H79.8953M132.079 58.8878L143.816 84.3114M132.079 58.8878H184.263M132.079 58.8878L119.182 30.9513M79.8953 58.8878L93.9794 84.3114M79.8953 58.8878L64.4187 30.9513M79.8953 58.8878H27.7109M143.816 84.3114H93.9794M143.816 84.3114H193.653M143.816 84.3114L154.542 107.543M184.263 58.8878L193.653 84.3114M184.263 58.8878L173.946 30.9513M119.182 30.9513H64.4187M119.182 30.9513L104.944 0.10977H162.555M119.182 30.9513H173.946M93.9794 84.3114L106.851 107.543M93.9794 84.3114L44.1426 84.3094M64.4187 30.9513L47.3325 0.10977M64.4187 30.9513H9.6547M27.7109 58.8878L44.1426 84.3094M27.7109 58.8878L9.6547 30.9513M27.7109 58.8878H0.211783M193.653 84.3114L202.234 107.543M154.542 107.543H106.851M154.542 107.543H202.234M154.542 107.543L164.384 128.86M106.851 107.543H59.1596M44.1426 84.3094L59.1596 107.543M44.1426 84.3094H0.211238M173.445 148.486H129.533M173.445 148.486L181.815 166.617M173.445 148.486H217.356M173.445 148.486L164.384 128.86M129.533 148.486L139.578 166.616M129.533 148.486L118.66 128.858M129.533 148.486L85.6227 148.484M181.815 166.617L139.578 166.616M181.815 166.617L224.052 166.616M181.815 166.617L189.57 183.414M217.356 148.486L224.052 166.616M217.356 148.486L210.107 128.86M164.384 128.86H210.107M139.578 166.616L148.884 183.414M139.578 166.616H97.3406M85.6227 148.484L97.3406 166.616M85.6227 148.484L72.937 128.862M224.052 166.616L230.257 183.416M189.57 183.414H148.884M189.57 183.414L230.257 183.416M189.57 183.414L196.776 199.021M148.884 183.414L157.531 199.021M148.884 183.414H108.198M97.3406 166.616L108.198 183.414M97.3406 166.616L55.1035 166.617M203.489 213.562H165.587M203.489 213.562L209.758 227.14M203.489 213.562H241.392M203.489 213.562L196.776 199.021M165.587 213.562L173.109 227.14M165.587 213.562L157.531 199.021M165.587 213.562H127.685M209.758 227.14H173.109M209.758 227.14H246.407M209.758 227.14L215.625 239.85M241.392 213.562L246.407 227.14M241.392 213.562L236.021 199.023M196.776 199.021H157.531M196.776 199.021L236.021 199.023M173.109 227.14L180.15 239.85M173.109 227.14H136.461M157.531 199.021L118.286 199.023M127.685 213.562L136.461 227.14M127.685 213.562L118.286 199.023M127.685 213.562H89.7825M246.407 227.14L251.1 239.852M215.625 239.85H180.15M215.625 239.85L251.1 239.852M215.625 239.85L221.129 251.77M180.15 239.85L186.754 251.77M180.15 239.85L144.675 239.852M136.461 227.14L144.675 239.852M136.461 227.14H99.8122M226.3 262.972H192.961M226.3 262.972L231.17 273.52M226.3 262.972H259.64M226.3 262.972L221.129 251.77M192.961 262.972L198.805 273.52M192.961 262.972L186.754 251.77M192.961 262.972H159.621M231.17 273.52H198.805M231.17 273.52H263.537M231.17 273.52L235.764 283.472M221.129 251.77H186.754M221.129 251.77L255.503 251.772M198.805 273.52L204.317 283.472M198.805 273.52H166.439M186.754 251.77L152.38 251.772M235.764 283.472H204.317M235.764 283.472L267.211 283.474M235.764 283.472L240.104 292.871M204.317 283.472L209.524 292.871M204.317 283.472L172.869 283.474M244.211 301.766H214.452M244.211 301.766L248.103 310.197M244.211 301.766H273.968M244.211 301.766L240.104 292.871M214.452 301.766L219.123 310.197M214.452 301.766L209.524 292.871M214.452 301.766H184.694M248.103 310.197H219.123M248.103 310.197H277.082M248.103 310.197L251.796 318.196M240.104 292.871H209.524M240.104 292.871L270.683 292.873M219.123 310.197L223.555 318.196M219.123 310.197H190.143M209.524 292.871L178.945 292.873M251.796 318.196H223.555M251.796 318.196L280.037 318.198M251.796 318.196L255.305 325.8M223.555 318.196L227.766 325.8M223.555 318.196L195.314 318.198M258.645 333.033H231.774M258.645 333.033L261.826 339.923M258.645 333.033H285.516M258.645 333.033L255.305 325.798M231.774 333.033L235.592 339.923M231.774 333.033L227.766 325.798M231.774 333.033H204.904M261.826 339.923H235.592M261.826 339.923H288.061M261.826 339.923L264.861 346.496M285.516 333.033L288.061 339.923M285.516 333.033L282.844 325.8M235.592 339.923L239.233 346.496M235.592 339.923H209.358M204.904 333.033L209.358 339.923M204.904 333.033L200.228 325.8M204.904 333.033H178.032M288.061 339.923L290.489 346.498M209.358 339.923L213.605 346.498M209.358 339.923H183.123M270.527 358.768L270.188 358.033L269.846 357.294L267.758 352.772M270.527 358.768H246.032M270.527 358.768L273.176 364.508M270.527 358.768H295.021M246.032 358.768L249.211 364.508M246.032 358.768L242.71 352.772M246.032 358.768H221.537M273.176 364.508H249.211M273.176 364.508H297.141M273.176 364.508L275.713 370.002M249.211 364.508L252.256 370.002M249.211 364.508H225.246M275.713 370.002H252.256M275.713 370.002L299.171 370.004M275.713 370.002L276.331 371.341L278.145 375.271M252.256 370.002L253.364 372.005L253.73 372.666L255.174 375.271M252.256 370.002L228.799 370.004M280.478 380.322H257.973M280.478 380.322L282.718 385.176M280.478 380.322H302.982M280.478 380.322L278.145 375.269M257.973 380.322L259.667 383.378L260.662 385.176M257.973 380.322L255.174 375.269M257.973 380.322H235.469M282.718 385.176H260.662M282.718 385.176H304.774M282.718 385.176L284.606 389.265L284.87 389.837M302.982 380.322L304.333 383.982L304.774 385.178M302.982 380.322L302.291 378.454L301.116 375.271M260.662 385.176L263.245 389.837M260.662 385.176H238.605M235.469 380.322L238.605 385.178M235.469 380.322L232.202 375.271M235.469 380.322H212.965M284.87 389.837H263.245M284.87 389.837L306.496 389.839M284.87 389.837L286.941 394.324M263.245 389.837L265.729 394.324M263.245 389.837L241.619 389.839M288.933 398.638H268.12M288.933 398.638L289.419 399.691L290.852 402.794M288.933 398.638H309.746M288.933 398.638L288.442 397.574L287.446 395.416L286.941 394.322M268.12 398.638L270.423 402.794M268.12 398.638L267.234 397.039L266.636 395.959L265.729 394.322M268.12 398.638H247.307M290.852 402.794H270.423M290.852 402.794H311.282M290.852 402.794L292.246 405.813L292.702 406.801M270.423 402.794L271.264 404.313L271.82 405.315L272.642 406.801M270.423 402.794H249.993M311.282 402.794L312.761 406.803M311.282 402.794L311.093 402.286L309.746 398.64M249.993 402.794L252.582 406.803M249.993 402.794L247.307 398.64M249.993 402.794H229.563M296.207 414.392H276.848M296.207 414.392L297.253 416.658L297.869 417.993M296.207 414.392H315.565M296.207 414.392L294.485 410.664M276.848 414.392L278.351 417.105L278.597 417.55L278.843 417.993M276.848 414.392L275.824 412.546L274.782 410.664M276.848 414.392H257.49M297.869 417.993H278.843M297.869 417.993L298.679 419.748L299.078 420.614L299.277 421.043L299.475 421.473M297.869 417.993H316.895M294.485 410.664H274.782M294.485 410.664L292.702 406.803M294.485 410.664L314.188 410.666M278.843 417.993H259.817M278.843 417.993L280.77 421.473M274.782 410.664L273.989 409.233L273.722 408.751L272.642 406.803M274.782 410.664L255.079 410.666M316.895 417.993L316.567 417.107L315.565 414.394M316.895 417.993L317.543 419.75L318.022 421.045L318.18 421.475M259.817 417.993L259.242 417.107L257.49 414.394M259.817 417.993H240.791M259.817 417.993L262.065 421.475M55.1035 166.617H12.8664L26.8261 183.416M55.1035 166.617L67.5119 183.414M55.1035 166.617L41.7115 148.488M26.8261 183.416L39.7978 199.023H79.0421M26.8261 183.416L67.5119 183.414M0.211238 166.616H12.8669L0.211238 151.385M0.211238 166.616V183.414V198.655V199.023V213.562M0.211238 166.616V151.385M0.211238 151.385V148.486V128.86M51.8804 213.562H13.9782M51.8804 213.562L63.1638 227.14M51.8804 213.562H89.7825M51.8804 213.562L39.7973 199.021M13.9782 213.562L26.516 227.14M13.9782 213.562L0.552383 199.021L39.7967 199.023M13.9782 213.562H0.211238M63.1638 227.14H26.516M63.1638 227.14H99.8122M63.1638 227.14L73.7257 239.85M89.7825 213.562L99.8122 227.14M89.7825 213.562L79.0421 199.023M26.516 227.14L38.2509 239.85M26.516 227.14H0.211783M0.211238 213.562V227.142V237.327M99.8122 227.14L109.201 239.852M73.7257 239.85L38.2504 239.852M73.7257 239.85L109.201 239.852M73.7257 239.85L83.6309 251.77M92.9412 262.972H59.6012M92.9412 262.972L101.707 273.52M92.9412 262.972H126.281M92.9412 262.972L83.6309 251.77M59.6012 262.972L69.3405 273.52M59.6012 262.972L49.2571 251.77M59.6012 262.972H26.2611M101.707 273.52H69.3405M101.707 273.52H134.072M101.707 273.52L109.975 283.47M83.6309 251.77H49.2571M83.6309 251.77L118.005 251.772M69.3405 273.52L78.528 283.47M69.3405 273.52H36.9747M49.2571 251.77L38.2504 239.852M49.2571 251.77L14.8827 251.772M125.179 301.766H95.4209M125.179 301.766L132.184 310.197M125.179 301.766H154.936M125.179 301.766L117.786 292.871M95.4209 301.766L103.205 310.197M95.4209 301.766L87.2072 292.871M95.4209 301.766H65.6627M132.184 310.197H103.205M132.184 310.197H161.163M132.184 310.197L138.832 318.196M117.786 292.871H87.2072M117.786 292.871L109.975 283.472M117.786 292.871L148.366 292.873M103.205 310.197L110.592 318.196M103.205 310.197H74.2251M87.2072 292.871L78.528 283.472M87.2072 292.871L56.628 292.873M138.832 318.196H110.592M138.832 318.196L167.074 318.198M138.832 318.196L145.15 325.8M110.592 318.196L117.611 325.8M110.592 318.196L82.3504 318.198M151.161 333.033H124.291M151.161 333.033L156.888 339.923M151.161 333.033H178.032M151.161 333.033L145.15 325.798M124.291 333.033L130.653 339.923M124.291 333.033L117.611 325.798M124.291 333.033H97.4198M156.888 339.923H130.653M156.888 339.923H183.123M156.888 339.923L162.35 346.496M178.032 333.033L183.123 339.923M178.032 333.033L172.689 325.8M130.653 339.923L136.722 346.496M130.653 339.923H104.418M97.4198 333.033L104.418 339.923M97.4198 333.033L90.0723 325.8M97.4198 333.033L70.5484 333.035M183.123 339.923L187.977 346.498M104.418 339.923L111.094 346.498M104.418 339.923L78.1841 339.925M172.548 358.768H148.054M172.548 358.768L177.317 364.508M172.548 358.768H197.043M172.548 358.768L167.564 352.772M148.054 358.768L153.352 364.508M148.054 358.768L142.516 352.772M148.054 358.768H123.559M177.317 364.508H153.352M177.317 364.508H201.282M177.317 364.508L181.884 370.002M153.352 364.508L158.426 370.002M153.352 364.508H129.388M181.884 370.002H158.426M181.884 370.002L205.341 370.004M181.884 370.002L186.261 375.271M158.426 370.002L163.289 375.271M158.426 370.002L134.969 370.004M190.46 380.322H167.956M190.46 380.322L194.492 385.176M190.46 380.322H212.965M190.46 380.322L186.261 375.269M167.956 380.322L172.436 385.176M167.956 380.322L163.289 375.269M167.956 380.322H145.451M194.492 385.176H172.436M194.492 385.176H216.549M194.492 385.176L198.367 389.837M212.965 380.322L216.549 385.178M212.965 380.322L209.232 375.271M172.436 385.176L176.741 389.837M172.436 385.176H150.379M145.451 380.322L150.379 385.178M145.451 380.322L140.319 375.271M145.451 380.322L122.947 380.324M198.367 389.837H176.741M198.367 389.837L219.993 389.839M198.367 389.837L202.093 394.324M176.741 389.837L180.373 393.773L180.882 394.324M176.741 389.837L155.115 389.839M205.68 398.638H184.867M205.68 398.638L209.134 402.794M205.68 398.638H226.493M205.68 398.638L204.796 397.574L204.351 397.039L202.093 394.322M184.867 398.638L188.704 402.794M184.867 398.638L180.882 394.322M184.867 398.638H164.053M209.134 402.794H188.704M209.134 402.794H229.563M209.134 402.794L212.463 406.801M188.704 402.794L192.404 406.801M188.704 402.794H168.275M229.563 402.794L232.523 406.803M229.563 402.794L226.493 398.64M168.275 402.794L172.344 406.803M168.275 402.794L164.053 398.64M168.275 402.794L147.846 402.796M218.772 414.392H199.414M218.772 414.392L221.764 417.993M218.772 414.392H238.131M218.772 414.392L215.674 410.664M199.414 414.392L201.918 417.105L202.328 417.55L202.738 417.993M199.414 414.392L195.971 410.664M199.414 414.392H180.055M221.764 417.993H202.738M221.764 417.993L224.299 421.043L224.655 421.473M221.764 417.993H240.791M215.674 410.664H195.971M215.674 410.664L212.463 406.803M215.674 410.664L235.377 410.666M202.738 417.993H183.712M202.738 417.993L205.95 421.473M195.971 410.664L192.404 406.803M195.971 410.664L176.268 410.666M240.791 417.993L238.131 414.394M240.791 417.993L242.726 420.616L243.36 421.475M183.712 417.993L180.055 414.394M183.712 417.993L164.686 417.995M183.712 417.993L187.245 421.475M6.14718 301.768L16.2658 310.199M6.14718 301.768H35.9049M6.14718 301.768L0.211238 296.823M6.14718 301.768H0.211238M16.2658 310.199H45.2458M16.2658 310.199L25.8687 318.198M16.2658 310.199H0.211238M35.9049 301.768H65.6627M35.9049 301.768L45.2458 310.199M35.9049 301.768L26.0488 292.873M0.211238 296.823V301.768M0.211238 296.823V292.873M0.211238 301.768V310.199M45.2458 310.199H74.2251M45.2458 310.199L54.1096 318.198M25.8687 318.198L34.9945 325.8M25.8687 318.198H54.1096M25.8687 318.198H0.211238M0.211238 310.199V318.198M43.6776 333.035H16.8062M43.6776 333.035L51.9497 339.925M43.6776 333.035H70.5484M43.6776 333.035L34.9945 325.8M16.8062 333.035L25.7142 339.925M16.8062 333.035L7.45608 325.8M16.8062 333.035H0.211238M51.9497 339.925H25.7142M51.9497 339.925H78.1835M51.9497 339.925L59.8381 346.498M70.5484 333.035L78.1841 339.925M70.5484 333.035L62.5334 325.8M34.9945 325.8H7.45608M34.9945 325.8H62.5334M25.7142 339.925L34.2101 346.498M25.7142 339.925H0.211238M7.45608 325.8L0.211238 320.198M7.45608 325.8H0.211238M0.211238 333.035H0.0120083M0.211238 333.035V339.925M0.211238 333.035V325.8M59.8381 346.498H34.2101M59.8381 346.498H85.466M59.8381 346.498L67.3706 352.774M34.2101 346.498L42.3223 352.774M34.2101 346.498H8.58268M0.211238 339.925V340.454M74.5701 358.77H50.0753M74.5701 358.77L81.458 364.51M74.5701 358.77H99.0644M74.5701 358.77L67.3706 352.774M50.0753 358.77L57.4932 364.51M50.0753 358.77L42.3223 352.774M50.0753 358.77H25.5805M81.458 364.51H57.4932M81.458 364.51H105.423M81.458 364.51L88.0544 370.004M99.0644 358.77H123.559M99.0644 358.77L105.423 364.51M99.0644 358.77L92.4189 352.774M67.3706 352.774H42.3223M67.3706 352.774H92.4189M57.4932 364.51L64.5966 370.004M57.4932 364.51H33.5284M42.3223 352.774H17.274M25.5805 358.77L33.5284 364.51M25.5805 358.77L17.2745 352.774M25.5805 358.77H1.08621M105.423 364.51H129.388M105.423 364.51L111.512 370.004M88.0544 370.004H64.5966M88.0544 370.004H111.512M88.0544 370.004L94.3768 375.271M64.5966 370.004L71.4059 375.271M64.5966 370.004H41.1395M33.5284 364.51L41.1395 370.004M33.5284 364.51H9.563M100.443 380.324H77.9384M100.443 380.324L106.267 385.178M100.443 380.324H122.947M100.443 380.324L94.3768 375.271M77.9384 380.324L84.2101 385.178M77.9384 380.324L71.4059 375.271M77.9384 380.324H55.4332M106.267 385.178H84.2101M106.267 385.178H128.323M106.267 385.178L111.864 389.839M122.947 380.324L128.323 385.178M122.947 380.324L117.348 375.271M94.3768 375.271H71.4059M94.3768 375.271H117.348M84.2101 385.178L90.2377 389.839M84.2101 385.178H62.154M71.4059 375.271H48.4345M55.4332 380.324L62.154 385.178M55.4332 380.324L48.4345 375.271M55.4332 380.324H32.9296M128.323 385.178H150.379M128.323 385.178L133.49 389.839M111.864 389.839H90.2377M111.864 389.839H133.49M111.864 389.839L117.246 394.324M90.2377 389.839L96.0345 394.324M90.2377 389.839H68.6118M62.154 385.178L68.6118 389.839M62.154 385.178H40.0969H18.0414L10.4249 380.324M122.427 398.64H101.613M122.427 398.64L127.416 402.796M122.427 398.64H143.24M122.427 398.64L117.246 394.324M101.613 398.64L106.986 402.796M101.613 398.64L96.0345 394.324M101.613 398.64H80.7997M127.416 402.796H106.986M127.416 402.796H147.846M127.416 402.796L132.224 406.803M143.24 398.64H164.053M143.24 398.64L147.279 402.286L147.846 402.796M143.24 398.64L138.458 394.324M117.246 394.324H96.0345M117.246 394.324H138.458M106.986 402.796L112.165 406.803M106.986 402.796H86.5566M96.0345 394.324H74.8223M80.7997 398.64L86.5566 402.796M80.7997 398.64L74.8223 394.324M80.7997 398.64H59.9865M147.846 402.796L152.284 406.803M132.224 406.803H112.165M132.224 406.803H152.284M132.224 406.803L136.862 410.666M112.165 406.803L117.159 410.666M112.165 406.803H92.105M86.5566 402.796L92.105 406.803M86.5566 402.796H66.1272M141.338 414.394H121.979M141.338 414.394L145.659 417.995M141.338 414.394H160.696M141.338 414.394L136.862 410.666M121.979 414.394L126.633 417.995M121.979 414.394L117.159 410.666M121.979 414.394H102.62M145.659 417.995H126.633M145.659 417.995L149.835 421.475M145.659 417.995H164.686M160.696 414.394H180.055M160.696 414.394L164.686 417.995M160.696 414.394L156.565 410.666M136.862 410.666H117.159M136.862 410.666H156.565M126.633 417.995H107.607M126.633 417.995L131.13 421.475M117.159 410.666H97.4564M102.62 414.394L107.607 417.995M102.62 414.394L97.4564 410.666M102.62 414.394H83.262M149.835 421.475H131.13M149.835 421.475H168.54M164.686 417.995L168.54 421.475M107.607 417.995H88.5806M107.607 417.995L112.425 421.475M131.13 421.475H112.425M10.4249 380.324H32.9296M10.4249 380.324L2.49228 375.271M10.4249 380.324H0.211238M32.9296 380.324L40.098 385.178L46.9859 389.839M32.9296 380.324L25.4637 375.271M2.49228 375.271H25.4637M2.49228 375.271H0.211238M2.49228 375.271L0.211238 373.819M0.211238 380.324V385.178M0.211238 380.324V375.271M25.3594 389.839L18.0409 385.178H0.211238M25.3594 389.839H3.73405M25.3594 389.839H46.9859M25.3594 389.839L32.399 394.324M0.211238 385.178V387.72M39.1728 398.64H18.3602M39.1728 398.64L45.6977 402.796M39.1728 398.64H59.9865M39.1728 398.64L32.399 394.324M18.3602 398.64L25.2683 402.796M18.3602 398.64L11.1874 394.324M18.3602 398.64H0.211238M45.6977 402.796H25.2683M45.6977 402.796H66.1272M45.6977 402.796L51.9857 406.803M59.9865 398.64L66.1272 402.796M59.9865 398.64L53.6107 394.324M32.399 394.324H11.1874M32.399 394.324H53.6107M25.2683 402.796L31.9263 406.803M25.2683 402.796H4.83881M11.1874 394.324L3.73405 389.839M11.1874 394.324H0.211238M0.211238 398.64H0.147921M0.211238 398.64V400.16M0.211238 398.64V394.324M66.1272 402.796L72.0456 406.803M51.9857 406.803H31.9263M51.9857 406.803H72.0456M51.9857 406.803L58.0505 410.666M31.9263 406.803L38.3475 410.666M31.9263 406.803H11.8664M4.83881 402.796L11.8664 406.803M4.83881 402.796L0.211238 400.16M4.83881 402.796H0.211238M63.9029 414.394H44.5444M63.9029 414.394L69.5545 417.995M63.9029 414.394H83.262M63.9029 414.394L58.0505 410.666M44.5444 414.394L50.5283 417.995M44.5444 414.394L38.3475 410.666M44.5444 414.394H25.1848M69.5545 417.995H50.5283M69.5545 417.995L75.015 421.475M69.5545 417.995H88.5806M83.262 414.394L88.5806 417.995M83.262 414.394L77.7534 410.666M58.0505 410.666H38.3475M58.0505 410.666H77.7534M50.5283 417.995H31.5022M50.5283 417.995L56.3104 421.475M38.3475 410.666H18.6446M75.015 421.475H56.3104M75.015 421.475H93.7201M88.5806 417.995L93.7201 421.475M31.5022 417.995L25.1858 414.394M31.5022 417.995H12.4761M31.5022 417.995L37.6052 421.475M56.3104 421.475H37.6052M18.6446 410.666L25.1858 414.394M18.6446 410.666L11.8664 406.803M18.6446 410.666H0.211783M25.1858 414.394H5.82732M5.82732 414.394L12.4761 417.995M5.82732 414.394L0.211238 411.354M5.82732 414.394H0.211238M12.4761 417.995L18.9006 421.475M12.4761 417.995H0.211238M37.6052 421.475H18.9006M37.6052 421.475L43.5056 424.838M11.8664 406.803H0.211238M0.211238 411.354V414.394M0.211238 411.354V410.666V406.803M0.211238 414.394V417.995M18.9006 421.475L25.1116 424.838M18.9006 421.475H0.211783M0.211238 417.995V421.475M43.5056 424.838H25.1116M0.211238 400.16V402.796M0.211238 402.796V406.803M72.0456 406.803L77.7534 410.666M72.0456 406.803H92.105M77.7534 410.666H97.4564M3.73405 389.839L0.211238 387.72M3.73405 389.839H0.211238M0.211238 394.324V389.839M0.211238 387.72V389.839M46.9859 389.839L53.6107 394.324M46.9859 389.839H68.6118M53.6107 394.324H74.8223M97.4564 410.666L92.105 406.803M112.425 421.475H93.7201M112.425 421.475L117.083 424.838M93.7201 421.475L98.6894 424.838M117.083 424.838H98.6894M152.284 406.803L156.565 410.666M152.284 406.803H172.344M156.565 410.666H176.268M74.8223 394.324L68.6118 389.839M133.49 389.839L138.458 394.324M133.49 389.839H155.115M138.458 394.324H159.67M48.4345 375.271L41.1395 370.004M48.4345 375.271H25.4637M25.4637 375.271L17.6812 370.004M41.1395 370.004H17.6812M17.6812 370.004L9.563 364.51M17.6812 370.004H0.211783M0.211238 375.271V373.819M0.211238 373.819V370.004M9.563 364.51L1.08675 358.77M9.563 364.51H0.211238M111.512 370.004L117.348 375.271M111.512 370.004H134.969M117.348 375.271H140.319M1.08621 358.77L0.211238 358.178M1.08621 358.77H0.211238M0.211238 364.51V370.004M0.211238 364.51V358.77M0.0889708 370.004H0.211238M0.211238 358.178L0 358.035M0.211238 358.178V358.77M0.211238 358.178V352.774M17.274 352.774L8.58268 346.498M17.274 352.774H0.211238M8.58268 346.498H0.211238M8.58268 346.498L0.211238 340.454M0.211238 352.774V346.498M0.211238 346.498V340.454M85.466 346.498L92.4189 352.774M85.466 346.498H111.094M85.466 346.498L78.1841 339.925M92.4189 352.774H117.468M0.211238 320.198L0.131546 320.135M0.211238 320.198V325.8M0.211238 320.198V318.198M62.5334 325.8H90.0723M62.5334 325.8L54.1096 318.198M192.404 406.803H172.344M192.404 406.803H212.463M176.268 410.666L180.055 414.394M176.268 410.666L172.344 406.803M187.245 421.475H205.95M187.245 421.475H168.54M187.245 421.475L190.661 424.838M205.95 421.475H224.655M224.655 421.475H243.36M168.54 421.475L169.013 421.9L169.953 422.749L172.267 424.838M190.661 424.838H172.267M212.463 406.803H232.523M164.053 398.64L159.67 394.324M232.523 406.803L235.377 410.666M232.523 406.803H252.582M235.377 410.666H255.079M235.377 410.666L238.131 414.394M159.67 394.324H180.882M159.67 394.324L155.115 389.839M180.882 394.324H202.093M202.093 394.324H223.305M155.115 389.839L150.379 385.178M219.993 389.839L223.305 394.324M219.993 389.839H241.619M219.993 389.839L216.549 385.178M223.305 394.324L226.493 398.64M223.305 394.324H244.518M140.319 375.271H163.289M140.319 375.271L134.969 370.004M163.289 375.271H186.261M186.261 375.271H209.232M134.969 370.004L129.388 364.51M129.388 364.51L123.559 358.77M123.559 358.77L117.468 352.774M205.341 370.004L209.232 375.271M205.341 370.004H228.799M205.341 370.004L201.282 364.51M209.232 375.271H232.202M117.468 352.774H142.516M117.468 352.774L111.094 346.498M142.516 352.774L136.722 346.498M142.516 352.774H167.564M136.722 346.498H111.094M136.722 346.498H162.35M167.564 352.774L162.35 346.498M167.564 352.774H192.613M162.35 346.498H187.977M187.977 346.498L192.613 352.774M187.977 346.498H213.605M192.613 352.774L197.043 358.77M192.613 352.774H217.661M90.0723 325.8H117.611M90.0723 325.8L82.3504 318.198M117.611 325.8H145.15M145.15 325.8H172.689M82.3504 318.198L74.2251 310.199M82.3504 318.198H54.1096M74.2251 310.199L65.6627 301.768M65.6627 301.768L56.628 292.873M167.074 318.198L172.689 325.8M167.074 318.198H195.314M167.074 318.198L161.163 310.199M172.689 325.8H200.228M56.628 292.873L47.0803 283.472M56.628 292.873H26.0488M26.0488 292.873L15.6332 283.472M26.0488 292.873H0.211238M78.528 283.472H47.0803M78.528 283.472H109.975M47.0803 283.472L36.9753 273.522M47.0803 283.472H15.6332M15.6332 283.472L4.60902 273.522M15.6332 283.472H0.211238M0.211238 292.873V283.472M109.975 283.472H141.422M36.9753 273.522L26.2611 262.974M36.9753 273.522H4.60902M26.2611 262.974L14.8827 251.772M26.2611 262.974H0.211238M4.60902 273.522H0.211238M4.60902 273.522L0.211238 269.555M141.422 283.472L148.366 292.873M141.422 283.472L172.869 283.474M141.422 283.472L134.072 273.522M0.211238 283.472V273.522M148.366 292.873L154.936 301.768M148.366 292.873H178.945M14.8827 251.772L2.77611 239.852M14.8827 251.772H0.211238M0.211238 262.974V269.555M0.211238 262.974V251.772M0.211238 273.522V269.555M38.2504 239.852H2.77611M2.77611 239.852L0.211238 237.327M2.77611 239.852H0.211238M0.211238 251.772V239.852M0.211238 237.327V239.852M109.201 239.852L118.005 251.772M109.201 239.852H144.675M118.005 251.772L126.281 262.974M118.005 251.772H152.38M0.551292 199.023H0.211783M0.552929 199.023L0.211783 198.655M79.0421 199.023H118.286M79.0421 199.023L67.5119 183.414M272.642 406.803H252.582M272.642 406.803H292.702M255.079 410.666L255.385 411.138L257.49 414.394M255.079 410.666L254.464 409.713L252.582 406.803M257.49 414.394H238.131M262.065 421.475H280.77M262.065 421.475H243.36M262.065 421.475L264.239 424.838M280.77 421.475H299.475M299.475 421.475H318.18M243.36 421.475L244.302 422.749L245.844 424.838M264.239 424.838H245.844M292.702 406.803H312.761M247.307 398.64L245.576 395.961L245.224 395.418L244.518 394.324M247.307 398.64H226.493M312.761 406.803L313.123 407.781L314.188 410.666M312.761 406.803H332.821M314.188 410.666H333.891M314.188 410.666L315.565 414.394M244.518 394.324H265.729M244.518 394.324L241.619 389.839M265.729 394.324H286.941M286.941 394.324H308.153M241.619 389.839L240.876 388.692L240.503 388.112L238.605 385.178M238.605 385.178H216.549M306.496 389.839L306.707 390.41L306.917 390.978L308.153 394.324M306.496 389.839H328.122M306.496 389.839L304.774 385.178M308.153 394.324L309.156 397.041L309.354 397.576L309.551 398.109L309.746 398.64M308.153 394.324H329.365M232.202 375.271H255.174M232.202 375.271L228.799 370.004M255.174 375.271H278.145M278.145 375.271H301.116M228.799 370.004L225.246 364.51M225.246 364.51L221.537 358.77M225.246 364.51H201.282M221.537 358.77L217.661 352.774M221.537 358.77H197.043M201.282 364.51L197.043 358.77M299.171 370.004L301.116 375.271M299.171 370.004H322.628M299.171 370.004L297.141 364.51M301.116 375.271H324.087M217.661 352.774H242.71M217.661 352.774L213.605 346.498M242.71 352.774L239.233 346.498M242.71 352.774H267.758M239.233 346.498H213.605M239.233 346.498H264.861M267.758 352.774L264.861 346.498M267.758 352.774H292.806M264.861 346.498H290.489M290.489 346.498L292.806 352.774M290.489 346.498H316.117M292.806 352.774L293.926 355.806L295.021 358.77M292.806 352.774H317.855M200.228 325.8H227.766M200.228 325.8L195.314 318.198M227.766 325.8H255.305M255.305 325.8H282.844M195.314 318.198L190.143 310.199M190.143 310.199L184.694 301.768M190.143 310.199H161.163M184.694 301.768L178.945 292.873M184.694 301.768H154.936M161.163 310.199L154.936 301.768M280.037 318.198L282.844 325.8M280.037 318.198H308.277M280.037 318.198L277.082 310.199M282.844 325.8H310.383M178.945 292.873L172.869 283.474M172.869 283.474L166.439 273.522M166.439 273.522L159.621 262.974M166.439 273.522H134.072M159.621 262.974L152.38 251.772M159.621 262.974H126.281M134.072 273.522L126.281 262.974M267.211 283.474L270.683 292.873M267.211 283.474H298.658M267.211 283.474L263.537 273.522M270.683 292.873L273.968 301.768M270.683 292.873H301.262M152.38 251.772L144.675 239.852M251.1 239.852L255.503 251.772M251.1 239.852H286.575M255.503 251.772L259.64 262.974M255.503 251.772H289.877M118.286 199.023L108.198 183.414M108.198 183.414H67.5119M230.257 183.416L236.021 199.023M230.257 183.416L270.942 183.414M236.021 199.023H275.266M85.6227 148.488H41.7115M41.7115 148.488L27.2142 128.862M41.7115 148.488H0.211783M26.8266 183.418H0.211238M118.66 128.862L106.851 107.545M118.66 128.862H72.9364M118.66 128.862H164.383M72.9364 128.862L59.1591 107.545M72.9364 128.862H27.2136M27.2136 128.862L11.468 107.543M27.2136 128.862L0.211238 128.86M11.468 107.543H59.1596M11.468 107.543H0.210692M11.468 107.543L0.211238 92.305M0.211238 128.86L0.210692 107.543M202.234 107.543L210.107 128.86M202.234 107.543H249.926M0.210692 107.543L0.211238 92.305M0.211238 92.305V84.3074V58.8839V30.9513V16.3401V0.10977M210.107 128.86H255.83M9.6547 30.9513L0.211783 16.3401M9.6547 30.9513H0.211783M104.943 0.10977H47.3319H0.211238M0.211238 0.10977V0H785.787V0.10977M162.555 0.10977L173.946 30.9513M162.555 0.10977H220.166M173.946 30.9513H228.709M352.881 406.803H332.821M352.881 406.803H372.94M333.891 410.666L334.283 412.079L334.924 414.394M333.891 410.666L333.76 410.19L333.627 409.713L333.494 409.233L333.361 408.751L332.821 406.803M334.924 414.394H315.565M336.885 421.475H355.59M336.885 421.475L337.003 421.902L337.238 422.749L337.471 423.59L337.586 424.007L337.817 424.838M336.885 421.475H318.18M355.59 421.475H374.295M374.295 421.475H393M318.18 421.475L319.269 424.423L319.423 424.838M337.817 424.838H319.423M372.94 406.803H393M330.56 398.64L330.265 397.576L329.818 395.961L329.365 394.324M330.56 398.64H309.746M393 406.803V410.666M393 406.803H413.059M393 410.666H412.703M393 410.666V414.394M329.365 394.324H350.576M329.365 394.324L328.122 389.839M350.576 394.324H371.788M371.788 394.324H393M328.122 389.839L327.804 388.692L327.644 388.112L327.483 387.532L326.831 385.178M326.831 385.178H304.774M393 389.839V394.324M393 389.839H414.626M393 389.839V385.178M393 394.324V398.64M393 394.324H414.212M324.087 375.271H347.058M324.087 375.271L322.628 370.004M347.058 375.271H370.029M370.029 375.271H393M322.628 370.004L321.106 364.51M321.106 364.51L319.516 358.77M321.106 364.51H297.141M319.516 358.77L318.277 354.297L317.855 352.774M319.516 358.77H295.021M297.141 364.51L295.021 358.77M393 370.004V375.271M393 370.004H416.457M393 370.004V364.51M393 375.271H415.971M317.855 352.774H342.903M317.855 352.774L316.117 346.498M342.903 352.774L341.745 346.498M342.903 352.774H367.952M341.745 346.498H316.117M341.745 346.498H367.372M367.952 352.774L367.372 346.498M367.952 352.774H393M367.372 346.498H393M393 346.498V352.774M393 346.498H418.628M393 352.774V358.77M393 352.774H418.048M310.383 325.8H337.922M310.383 325.8L308.277 318.198M337.922 325.8H365.461M365.461 325.8H393M308.277 318.198L306.061 310.199M306.061 310.199L303.726 301.768M306.061 310.199H277.082M303.726 301.768L301.262 292.873M303.726 301.768H273.968M277.082 310.199L274.763 303.918L273.968 301.768M393 318.198V325.8M393 318.198H421.241M393 318.198V310.199M393 325.8H420.539M301.262 292.873L298.658 283.474M298.658 283.474L295.902 273.522M295.902 273.522L292.98 262.974M295.902 273.522H263.537M292.98 262.974L289.877 251.772M292.98 262.974H259.64M263.537 273.522L259.64 262.974M393 283.474V292.873M393 283.474H424.447M393 283.474V273.522M393 292.873V301.768M393 292.873H423.579M289.877 251.772L286.575 239.852M393 239.852V251.772M393 239.852H428.475M393 251.772V262.974M393 251.772H427.374M275.266 199.023L270.942 183.414M393 183.416V199.023M393 183.416L433.686 183.414M393 199.023H432.245M255.83 128.86L249.926 107.543M393 107.543V128.862M393 107.543H440.692M393 128.862L438.723 128.86M228.709 30.9513L220.166 0.10977M277.777 0.10977H220.166M277.777 0.10977H335.388M335.388 0.10977H393M393 0.10977V30.9513M393 0.10977H450.612M393 30.9513H447.763M433.119 406.803H413.059M433.119 406.803H453.179M412.703 410.666L412.359 414.394M412.703 410.666L412.747 410.19L412.791 409.713L412.836 409.233L413.059 406.803M412.359 414.394H393M411.705 421.475H430.41M411.705 421.475H393M411.705 421.475L411.587 422.749L411.548 423.17L411.395 424.838M430.41 421.475H449.115M449.115 421.475H467.82M393 421.475V424.838M411.395 424.838H393M453.179 406.803H473.239M413.813 398.64L414.212 394.324M413.813 398.64H393M473.239 406.803L472.877 407.781L471.812 410.666M473.239 406.803H493.298M471.812 410.666H491.515M471.812 410.666L470.435 414.394M414.212 394.324H435.424M414.212 394.324L414.626 389.839M435.424 394.324H456.635M456.635 394.324H477.847M414.626 389.839L415.056 385.178M415.056 385.178H393M479.504 389.839L477.847 394.324M479.504 389.839H501.13M479.504 389.839L481.226 385.178M477.847 394.324L476.844 397.041L476.646 397.576L476.449 398.109L476.254 398.64M477.847 394.324H499.059M415.971 375.271H438.942M415.971 375.271L416.09 373.975L416.334 371.341L416.457 370.004M438.942 375.271H461.913M461.913 375.271H484.885M416.457 370.004L416.9 365.209L416.965 364.51M416.965 364.51L417.494 358.77M416.965 364.51H393M417.494 358.77L418.048 352.774M417.494 358.77H393M393 364.51V358.77M486.829 370.004L484.885 375.271M486.829 370.004H510.287M486.829 370.004L488.859 364.51M484.885 375.271H507.855M418.048 352.774H443.097M418.048 352.774L418.628 346.498M443.097 352.774L444.255 346.498M443.097 352.774H468.145M444.255 346.498H418.628M444.255 346.498H469.883M468.145 352.774L469.883 346.498M468.145 352.774H493.194M469.883 346.498H495.511M495.511 346.498L493.194 352.774M495.511 346.498H521.139M493.194 352.774L492.074 355.806L491.25 358.035L490.979 358.77M493.194 352.774H518.242M420.539 325.8H448.078M420.539 325.8L421.241 318.198M448.078 325.8H475.616M475.616 325.8H503.156M421.241 318.198L421.979 310.199M421.979 310.199L422.758 301.768M421.979 310.199H393M422.758 301.768L423.579 292.873M422.758 301.768H393M393 310.199V301.768M505.963 318.198L503.156 325.8M505.963 318.198H534.204M505.963 318.198L508.918 310.199M503.156 325.8H530.695M423.579 292.873L424.447 283.474M424.447 283.474L425.366 273.522M425.366 273.522L426.34 262.974M425.366 273.522H393M426.34 262.974L427.374 251.772M426.34 262.974H393M393 273.522V262.974M518.789 283.474L515.317 292.873M518.789 283.474H550.238M518.789 283.474L522.463 273.522M515.317 292.873L512.032 301.768M515.317 292.873H545.899M427.374 251.772L428.475 239.852M534.9 239.852L530.497 251.772M534.9 239.852H570.374M530.497 251.772L526.36 262.974M530.497 251.772H564.872M432.245 199.023L433.686 183.414M555.746 183.416L549.982 199.023M555.746 183.416L596.432 183.414M549.982 199.023H589.222M438.723 128.86L484.446 128.862M438.723 128.86L440.692 107.545M484.446 128.862L488.383 107.545M583.763 107.543L575.892 128.862M583.763 107.543H631.458M575.892 128.862L621.617 128.86M447.763 30.9513L450.612 0.10977M508.223 0.10977H450.612M508.223 0.10977H565.833M565.833 0.10977H623.445M623.445 0.10977L612.054 30.9513M623.445 0.10977H681.058M612.054 30.9513H666.817M513.358 406.803H493.298M513.358 406.803H533.418M491.515 410.666L489.793 414.394M491.515 410.666L493.298 406.803M489.793 414.394H470.435M486.525 421.475H467.82M486.525 421.475L485.356 424.007L484.972 424.838M467.82 421.475L467.662 421.902L467.349 422.749L466.578 424.838M484.972 424.838H466.578M533.418 406.803H553.475M497.067 398.64L497.311 398.109L497.558 397.576L498.303 395.961L498.554 395.418L499.059 394.324M497.067 398.64H476.254M553.475 406.803L550.626 410.666M553.475 406.803H573.534M550.626 410.666H570.325M550.626 410.666L547.869 414.394M499.059 394.324H520.271M499.059 394.324L501.13 389.839M520.271 394.324H541.483M541.483 394.324H562.694M501.13 389.839L503.282 385.178M503.282 385.178H481.226M566.007 389.839L563.104 393.773L562.694 394.324M566.007 389.839H587.633M566.007 389.839L569.452 385.178M562.694 394.324L559.507 398.64M562.694 394.324H583.905M507.855 375.271H530.826M507.855 375.271L510.287 370.004M530.826 375.271H553.797M553.797 375.271H576.766M510.287 370.004L512.824 364.51M512.824 364.51L515.473 358.77M512.824 364.51H488.859M515.473 358.77L516.154 357.296L518.242 352.774M515.473 358.77H490.979M488.859 364.51L490.979 358.77M580.658 370.004L576.766 375.271M580.658 370.004H604.117M580.658 370.004L584.719 364.51M576.766 375.271H599.74M518.242 352.774H543.29M518.242 352.774L521.139 346.498M543.29 352.774L546.767 346.498M543.29 352.774H568.338M546.767 346.498H521.139M546.767 346.498H572.394M568.338 352.774L572.394 346.498M568.338 352.774H593.386M572.394 346.498H598.02M598.02 346.498L593.386 352.774M598.02 346.498H623.653M593.386 352.774L588.954 358.77M593.386 352.774H618.435M530.695 325.8H558.235M530.695 325.8L534.204 318.198M558.235 325.8H585.772M585.772 325.8H613.309M534.204 318.198L537.897 310.199M537.897 310.199L541.789 301.768M537.897 310.199H508.918M541.789 301.768L545.899 292.873M541.789 301.768H512.032M508.918 310.199L512.032 301.768M618.926 318.198L613.309 325.8M618.926 318.198H647.167M618.926 318.198L624.837 310.199M613.309 325.8H640.852M545.899 292.873L550.238 283.474M559.698 262.974L564.872 251.772M559.698 262.974H526.36M522.463 273.522L526.36 262.974M644.58 283.474L637.632 292.873M644.58 283.474H676.026M637.632 292.873L631.065 301.768M637.632 292.873H668.215M564.872 251.772L570.374 239.852M676.801 239.852L667.996 251.772M676.801 239.852H712.274M667.996 251.772L659.721 262.974M667.996 251.772H702.367M589.222 199.023L596.432 183.414M718.486 183.416L706.958 199.023M718.486 183.416L759.172 183.414M706.958 199.023H746.203M621.617 128.86L631.458 107.543M774.532 107.543L758.785 128.86M774.532 107.543H785.787M774.532 107.543L785.787 92.305M758.785 128.86H785.787M666.817 30.9513L681.058 0.10977M738.665 0.10977H681.058M738.665 0.10977H785.787M785.787 0.10977V16.3401M785.787 16.3401V30.9513M570.325 410.666L573.534 406.803M561.346 421.475L560.991 421.902L558.551 424.838M561.346 421.475H542.64M542.64 421.475L541.698 422.749L540.155 424.838M558.551 424.838H540.155M633.718 406.803L629.433 410.666M633.718 406.803H653.777M629.433 410.666H649.138M583.905 394.324L587.633 389.839M652.511 389.839L647.544 394.324M652.511 389.839H674.137M647.544 394.324H668.755M599.74 375.271L604.117 370.004M584.719 364.51L588.954 358.77M674.486 370.004L668.651 375.271M674.486 370.004H697.946M668.651 375.271H691.625M618.435 352.774L623.653 346.498M700.533 346.498L693.58 352.774M700.533 346.498H726.16M693.58 352.774H718.628M640.852 325.8L647.167 318.198M624.837 310.199L631.065 301.768M731.892 318.198L723.464 325.8M731.892 318.198H760.133M723.464 325.8H751.007M668.215 292.873L676.026 283.474M770.367 283.474L759.953 292.873M770.367 283.474H785.787M759.953 292.873H785.787M702.367 251.772L712.274 239.852M783.222 239.852H785.787M783.222 239.852L785.787 237.327M785.787 239.852V237.327M785.787 239.852V251.772M785.787 251.772V262.972V269.555M746.203 199.023L759.172 183.414M785.787 199.023V198.655M785.787 198.655V183.414M759.172 183.414L773.135 166.616M759.172 183.414H785.787M773.135 166.616H785.787M773.135 166.616L785.787 151.389M785.787 166.616V151.385V148.486M785.787 166.616V183.414M785.787 148.486V128.86M785.787 128.86V107.543M785.787 107.543V92.305M649.138 410.666L653.777 406.803M636.163 421.475L635.65 421.902L632.13 424.838M636.163 421.475H617.458M617.458 421.475L616.988 421.902L613.735 424.838M632.13 424.838H613.735M713.955 406.803L708.246 410.666M713.955 406.803H734.015M708.246 410.666H727.951M668.755 394.324L674.137 389.839M739.015 389.839L732.388 394.324M739.015 389.839H760.641M732.388 394.324H753.599M691.625 375.271L697.946 370.004M768.32 370.004L760.537 375.271M768.32 370.004H785.787M760.537 375.271H783.506M718.628 352.774L726.16 346.498M785.787 352.774V358.178M751.007 325.8L760.133 318.198M785.787 320.198L785.869 320.135M785.787 320.198V318.198M760.133 318.198L769.734 310.199M760.133 318.198H785.787M769.734 310.199L779.854 301.768M769.734 310.199H785.787M779.854 301.768H785.787M779.854 301.768L785.787 296.825M785.787 318.198V310.197V301.766V296.823V292.873M785.787 292.873V283.474M785.787 273.524V269.555M785.787 273.524V283.474M727.951 410.666L734.015 406.803M710.986 421.475H692.28M710.986 421.475L705.702 424.838M692.28 421.475L687.313 424.838M705.702 424.838H687.313M785.787 406.803V410.666M785.787 410.666V411.354M753.599 394.324L760.641 389.839M782.267 389.839H760.641M782.267 389.839L785.787 387.72M782.267 389.839H785.787M785.787 394.324V389.839M760.641 389.839L767.96 385.178M767.96 385.178L775.575 380.324M767.96 385.178H785.787M775.575 380.324L783.506 375.271M775.575 380.324H785.787M785.787 385.178V380.324M785.787 385.178V387.72M785.787 387.72V389.839M783.506 375.271L785.787 373.819M783.506 375.271H785.787M785.787 380.324V375.271M785.787 373.819V370.004M785.787 373.819V375.271M785.787 364.51V358.772M785.787 364.51V370.004M785.787 370.004H785.913M785.787 358.772V358.178M785.787 358.178L786 358.035M785.787 414.394V411.354M785.787 414.394V417.995M767.098 421.475L760.886 424.838M767.098 421.475H785.787M785.787 417.995V421.475M760.886 424.838H779.281M785.787 421.475H785.804L785.787 421.482M785.787 421.475V421.482M779.281 424.838L785.787 421.482M779.281 424.838H785.787M785.787 421.482V424.838M0.211238 421.482L0.210692 424.836M0.211238 421.482L0.194863 421.475H0.211238M0.211238 421.482V421.475M6.71757 424.836H0.210692" stroke="url(#paint0_radial_25_288)" stroke-opacity="0.6" stroke-width="1.889" stroke-miterlimit="10" stroke-linecap="round" stroke-linejoin="round"/>
<path d="M0 0H786V346.952H0V0Z" fill="url(#paint1_linear_25_288)"/>
</g>
</g>
<defs>
<radialGradient id="paint0_radial_25_288" cx="0" cy="0" r="1" gradientUnits="userSpaceOnUse" gradientTransform="translate(393 15.8932) rotate(90) scale(675.05 1230.38)">
<stop stop-color="#3D3D3D"/>
<stop offset="0.489" stop-color="#3D3D3D" stop-opacity="0"/>
</radialGradient>
<linearGradient id="paint1_linear_25_288" x1="392.389" y1="346.952" x2="392.389" y2="-42.1439" gradientUnits="userSpaceOnUse">
<stop offset="0.259" stop-color="#050505" stop-opacity="0"/>
<stop offset="1" stop-color="#050505"/>
</linearGradient>
<clipPath id="clip0_25_288">
<rect width="786" height="431.24" fill="white"/>
</clipPath>
</defs>
</svg>
