<svg width="215" height="60" viewBox="0 0 215 60" fill="none" xmlns="http://www.w3.org/2000/svg">
<path d="M12.15 47.7C9.01667 47.7 6.65 46.65 5.05 44.55C3.48333 42.4167 2.7 39.1833 2.7 34.85V20.6H10.8V33.8C10.8 36.2667 11.1667 38.1167 11.9 39.35C12.6333 40.55 13.75 41.15 15.25 41.15C16.15 41.15 16.9167 40.9333 17.55 40.5C18.2167 40.0333 18.7667 39.4 19.2 38.6C19.6667 37.7667 20 36.8167 20.2 35.75C20.4333 34.6833 20.55 33.5167 20.55 32.25V20.6H28.6V36.3V47H22.2L22.05 38.85H21.05C20.55 40.9167 19.9167 42.6167 19.15 43.95C18.4167 45.25 17.4833 46.2 16.35 46.8C15.2167 47.4 13.8167 47.7 12.15 47.7ZM34.7895 47V31.1V20.6H41.2895L41.3895 28.35H42.3895C42.8228 26.4833 43.4395 24.9167 44.2395 23.65C45.0395 22.3833 46.0561 21.45 47.2895 20.85C48.5228 20.2167 49.9728 19.9 51.6395 19.9C54.7395 19.9 57.0895 20.9833 58.6895 23.15C60.3228 25.3167 61.1395 28.7667 61.1395 33.5V47H53.0395V34.4C53.0395 31.6667 52.6395 29.6833 51.8395 28.45C51.0728 27.1833 49.9228 26.55 48.3895 26.55C47.1228 26.55 46.0728 26.9333 45.2395 27.7C44.4395 28.4667 43.8395 29.4833 43.4395 30.75C43.0395 32.0167 42.8395 33.4333 42.8395 35V47H34.7895ZM66.9184 47V20.6H74.9684V47H66.9184ZM70.9684 16.9C69.435 16.9 68.2517 16.5833 67.4184 15.95C66.6184 15.2833 66.2184 14.35 66.2184 13.15C66.2184 11.8833 66.6184 10.9333 67.4184 10.3C68.2517 9.63333 69.435 9.3 70.9684 9.3C72.535 9.3 73.7184 9.63333 74.5184 10.3C75.3517 10.9333 75.7684 11.8667 75.7684 13.1C75.7684 14.3333 75.3517 15.2833 74.5184 15.95C73.7184 16.5833 72.535 16.9 70.9684 16.9Z" fill="white"/>
<path d="M93.675 47.7C91.4083 47.7 89.4083 47.3833 87.675 46.75C85.9417 46.1167 84.4917 45.2167 83.325 44.05C82.1583 42.85 81.2583 41.4167 80.625 39.75C80.025 38.0833 79.725 36.2167 79.725 34.15C79.725 32.0167 80.025 30.0833 80.625 28.35C81.2583 26.6167 82.1583 25.1167 83.325 23.85C84.4917 22.5833 85.925 21.6167 87.625 20.95C89.325 20.25 91.275 19.9 93.475 19.9C95.675 19.9 97.575 20.25 99.175 20.95C100.775 21.65 102.075 22.6333 103.075 23.9C104.108 25.1667 104.808 26.6333 105.175 28.3L97.725 30.8C97.625 29.7 97.3583 28.8 96.925 28.1C96.4917 27.4 95.925 26.9 95.225 26.6C94.5583 26.2667 93.825 26.1 93.025 26.1C92.1917 26.1 91.4583 26.2667 90.825 26.6C90.1917 26.9333 89.6583 27.4333 89.225 28.1C88.7917 28.7667 88.4583 29.5833 88.225 30.55C87.9917 31.4833 87.875 32.5667 87.875 33.8C87.875 35.5667 88.0917 37.05 88.525 38.25C88.9917 39.4167 89.6583 40.3 90.525 40.9C91.425 41.5 92.5083 41.8 93.775 41.8C95.075 41.8 96.0917 41.5333 96.825 41C97.5583 40.4667 98.0917 39.8167 98.425 39.05C98.7583 38.25 98.9583 37.4667 99.025 36.7L106.025 38.25C105.892 39.4833 105.558 40.6833 105.025 41.85C104.525 42.9833 103.775 44 102.775 44.9C101.775 45.7667 100.525 46.45 99.025 46.95C97.5583 47.45 95.775 47.7 93.675 47.7ZM109.789 47V30.2V11H117.839V19.25C117.839 19.9167 117.806 20.6167 117.739 21.35C117.706 22.05 117.623 22.7833 117.489 23.55C117.389 24.2833 117.273 25.0333 117.139 25.8C117.039 26.5667 116.906 27.3167 116.739 28.05H117.939C118.406 26.4167 118.989 25 119.689 23.8C120.389 22.5667 121.306 21.6167 122.439 20.95C123.573 20.25 125.023 19.9 126.789 19.9C129.923 19.9 132.256 21 133.789 23.2C135.356 25.3667 136.139 28.7167 136.139 33.25V47H128.039V34.6C128.039 31.9 127.639 29.8833 126.839 28.55C126.073 27.1833 124.889 26.5 123.289 26.5C122.056 26.5 121.039 26.8833 120.239 27.65C119.439 28.4167 118.839 29.45 118.439 30.75C118.039 32.0167 117.839 33.4333 117.839 35V47H109.789ZM148.118 47.7C146.652 47.7 145.352 47.4167 144.218 46.85C143.085 46.25 142.202 45.4 141.568 44.3C140.935 43.1667 140.618 41.8 140.618 40.2C140.618 38.7 140.902 37.4667 141.468 36.5C142.068 35.5 142.918 34.7167 144.018 34.15C145.152 33.55 146.502 33.0667 148.068 32.7C149.635 32.3 151.418 31.95 153.418 31.65C154.385 31.4833 155.185 31.3333 155.818 31.2C156.485 31.0333 156.985 30.7833 157.318 30.45C157.652 30.1167 157.818 29.6333 157.818 29C157.818 28.1667 157.518 27.45 156.918 26.85C156.318 26.25 155.352 25.95 154.018 25.95C153.085 25.95 152.235 26.1167 151.468 26.45C150.735 26.7833 150.102 27.2667 149.568 27.9C149.035 28.5333 148.635 29.3 148.368 30.2L141.268 28.1C141.702 26.7 142.302 25.4833 143.068 24.45C143.868 23.4167 144.818 22.5667 145.918 21.9C147.018 21.2 148.268 20.7 149.668 20.4C151.102 20.0667 152.618 19.9 154.218 19.9C156.885 19.9 159.052 20.3333 160.718 21.2C162.418 22.0333 163.668 23.35 164.468 25.15C165.302 26.9167 165.718 29.2 165.718 32V36.05C165.718 37.25 165.735 38.4667 165.768 39.7C165.835 40.9 165.902 42.1167 165.968 43.35C166.068 44.55 166.185 45.7667 166.318 47H159.218C159.085 46.2333 158.952 45.3167 158.818 44.25C158.685 43.15 158.585 42.0333 158.518 40.9H157.568C157.102 42.1667 156.418 43.3333 155.518 44.4C154.652 45.4333 153.585 46.25 152.318 46.85C151.085 47.4167 149.685 47.7 148.118 47.7ZM151.768 42C152.368 42 152.968 41.9 153.568 41.7C154.202 41.4667 154.802 41.1667 155.368 40.8C155.935 40.4 156.452 39.9167 156.918 39.35C157.385 38.7833 157.735 38.1667 157.968 37.5L157.868 33.55L158.968 33.8C158.335 34.2 157.635 34.5167 156.868 34.75C156.102 34.9833 155.318 35.1667 154.518 35.3C153.752 35.4333 152.985 35.5833 152.218 35.75C151.485 35.8833 150.818 36.0667 150.218 36.3C149.652 36.5333 149.202 36.85 148.868 37.25C148.535 37.65 148.368 38.2 148.368 38.9C148.368 39.8333 148.685 40.5833 149.318 41.15C149.952 41.7167 150.768 42 151.768 42ZM171.655 47V20.6H179.705V47H171.655ZM175.705 16.9C174.171 16.9 172.988 16.5833 172.155 15.95C171.355 15.2833 170.955 14.35 170.955 13.15C170.955 11.8833 171.355 10.9333 172.155 10.3C172.988 9.63333 174.171 9.3 175.705 9.3C177.271 9.3 178.455 9.63333 179.255 10.3C180.088 10.9333 180.505 11.8667 180.505 13.1C180.505 14.3333 180.088 15.2833 179.255 15.95C178.455 16.5833 177.271 16.9 175.705 16.9ZM185.961 47V31.1V20.6H192.461L192.561 28.35H193.561C193.995 26.4833 194.611 24.9167 195.411 23.65C196.211 22.3833 197.228 21.45 198.461 20.85C199.695 20.2167 201.145 19.9 202.811 19.9C205.911 19.9 208.261 20.9833 209.861 23.15C211.495 25.3167 212.311 28.7667 212.311 33.5V47H204.211V34.4C204.211 31.6667 203.811 29.6833 203.011 28.45C202.245 27.1833 201.095 26.55 199.561 26.55C198.295 26.55 197.245 26.9333 196.411 27.7C195.611 28.4667 195.011 29.4833 194.611 30.75C194.211 32.0167 194.011 33.4333 194.011 35V47H185.961Z" fill="#A3FF50"/>
</svg>
