<svg width="223" height="221" viewBox="0 0 223 221" fill="none" xmlns="http://www.w3.org/2000/svg">
<path fill-rule="evenodd" clip-rule="evenodd" d="M72.8342 199.778C74.5581 202.378 77.5428 203.858 80.6639 203.659L114.125 201.536C117.246 201.338 120.029 199.492 121.426 196.694L136.404 166.697C137.801 163.899 137.6 160.574 135.876 157.974L117.393 130.101C115.668 127.501 112.684 126.021 109.563 126.219L76.1017 128.343C72.9806 128.541 70.1974 130.387 68.8003 133.185L53.8225 163.182C52.4254 165.98 52.6269 169.305 54.3509 171.905L72.8342 199.778Z" fill="#A3FF50" fill-opacity="0.1"/>
<path fill-rule="evenodd" clip-rule="evenodd" d="M69.0382 114.833C70.7622 117.433 73.7469 118.913 76.8679 118.715L110.329 116.591C113.45 116.393 116.233 114.547 117.63 111.749L132.608 81.7525C134.005 78.9545 133.804 75.6293 132.08 73.0295L113.597 45.1561C111.873 42.5562 108.888 41.0766 105.767 41.2747L72.3057 43.3983C69.1846 43.5964 66.4015 45.442 65.0043 48.2399L50.0265 78.2369C48.6295 81.0349 48.8309 84.36 50.5549 86.9599L69.0382 114.833Z" fill="#A3FF50" fill-opacity="0.1"/>
<path fill-rule="evenodd" clip-rule="evenodd" d="M145.427 151.64C147.151 154.24 150.136 155.72 153.257 155.522L186.718 153.398C189.839 153.2 192.623 151.354 194.02 148.557L208.997 118.56C210.395 115.762 210.193 112.436 208.469 109.837L189.986 81.9632C188.262 79.3633 185.277 77.8838 182.156 78.0818L148.695 80.2054C145.574 80.4035 142.791 82.2491 141.394 85.047L126.416 115.044C125.019 117.842 125.22 121.167 126.944 123.767L145.427 151.64Z" fill="#A3FF50" fill-opacity="0.1"/>
</svg>
